<svg width="23" height="22" viewBox="0 0 23 22" fill="none" xmlns="http://www.w3.org/2000/svg">
<path d="M21.7222 0H19.9206C19.5853 0.00135009 19.2641 0.128646 19.0261 0.354444L9.85167 9.13C8.96325 8.75019 8.00089 8.55442 7.02778 8.55556C3.14644 8.55556 0 11.5652 0 15.2778C0 18.9904 3.14644 22 7.02778 22C10.9091 22 14.0556 18.9904 14.0556 15.2778C14.0534 14.3525 13.8534 13.4375 13.4678 12.5889L14.5922 11.5133C14.8283 11.2857 14.9614 10.9784 14.9628 10.6578V9.77778C14.963 9.53474 15.0641 9.30174 15.2439 9.13L15.5761 8.81222C15.7557 8.64026 15.9993 8.54355 16.2533 8.54333H18.5278C18.8806 8.54333 19.1667 8.26973 19.1667 7.93222V5.78111C19.1669 5.53808 19.268 5.30508 19.4478 5.13333H19.5117C19.62 4.99118 19.7882 4.90179 19.9717 4.88889H22.3611C22.714 4.88889 23 4.61528 23 4.27778V1.22222C23 0.547207 22.4279 0 21.7222 0ZM5.67333 19.0178C4.26194 19.0178 3.11778 17.9234 3.11778 16.5733C3.11778 15.2233 4.26194 14.1289 5.67333 14.1289C7.08473 14.1289 8.22889 15.2233 8.22889 16.5733C8.22889 17.2216 7.95964 17.8434 7.48038 18.3018C7.00112 18.7602 6.35111 19.0178 5.67333 19.0178Z" fill="white"/>
</svg>
