<svg width="24" height="23" viewBox="0 0 24 23" fill="none" xmlns="http://www.w3.org/2000/svg">
<path d="M20 2.875H18.59C18.3277 2.87606 18.0763 2.97587 17.89 3.15292L10.71 10.0338C10.0147 9.73594 9.26157 9.58245 8.5 9.58333C5.46243 9.58333 3 11.9432 3 14.8542C3 17.7652 5.46243 20.125 8.5 20.125C11.5376 20.125 14 17.7652 14 14.8542C13.9983 14.1287 13.8418 13.4112 13.54 12.7458L14.42 11.9025C14.6047 11.724 14.7089 11.4831 14.71 11.2317V10.5417C14.7102 10.3511 14.7893 10.1684 14.93 10.0338L15.19 9.78458C15.3305 9.64975 15.5212 9.57392 15.72 9.57375H17.5C17.7761 9.57375 18 9.35922 18 9.09458V7.40792C18.0002 7.21736 18.0793 7.03466 18.22 6.9H18.27C18.3548 6.78854 18.4864 6.71845 18.63 6.70833H20.5C20.7761 6.70833 21 6.4938 21 6.22917V3.83333C21 3.30406 20.5523 2.875 20 2.875ZM7.44 17.7867C6.33543 17.7867 5.44 16.9285 5.44 15.87C5.44 14.8115 6.33543 13.9533 7.44 13.9533C8.54457 13.9533 9.44 14.8115 9.44 15.87C9.44 16.3783 9.22929 16.8658 8.85421 17.2253C8.47914 17.5847 7.97043 17.7867 7.44 17.7867Z" fill="#333333"/>
</svg>
