<svg width="783" height="821" viewBox="0 0 783 821" fill="none" xmlns="http://www.w3.org/2000/svg">
<path d="M177.221 524.586V481.402H102.789V524.586H177.221Z" fill="#EBEBEB"/>
<path d="M178.42 645.043V610.939H85.5156V645.043H178.42Z" fill="#F5F5F5"/>
<path d="M92.1985 645.437C92.494 645.437 92.7239 637.638 92.7239 628.032C92.7239 618.427 92.494 610.611 92.1985 610.611C91.9029 610.611 91.6895 618.41 91.6895 628.032C91.6895 637.654 91.9522 645.437 92.1985 645.437Z" fill="#FAFAFA"/>
<path d="M96.6153 643.549C96.8944 643.549 97.1243 636.176 97.1243 627.129C97.1243 618.082 96.8944 610.709 96.6153 610.709C96.3361 610.709 96.0898 618.082 96.0898 627.129C96.0898 636.176 96.3197 643.549 96.6153 643.549Z" fill="#FAFAFA"/>
<path d="M160.079 628.968C160.079 628.689 147.78 628.443 132.592 628.443C117.403 628.443 105.104 628.689 105.104 628.968C105.104 629.247 117.419 629.493 132.592 629.493C147.764 629.493 160.079 629.247 160.079 628.968Z" fill="#FAFAFA"/>
<path d="M168.584 645.043C168.863 645.043 169.093 637.572 169.093 628.344C169.093 619.116 168.863 611.661 168.584 611.661C168.305 611.661 168.059 619.132 168.059 628.344C168.059 637.556 168.305 645.043 168.584 645.043Z" fill="#FAFAFA"/>
<path d="M172.574 645.043C172.853 645.043 173.083 637.375 173.083 627.934C173.083 618.492 172.853 610.824 172.574 610.824C172.295 610.824 172.049 618.476 172.049 627.934C172.049 637.392 172.279 645.043 172.574 645.043Z" fill="#FAFAFA"/>
<path d="M178.403 610.955V583.567H75.45V610.955H178.403Z" fill="#E0E0E0"/>
<path d="M122.74 611.136C124.03 609.998 125.202 608.733 126.237 607.359C128.29 604.929 131.048 601.497 133.987 597.639C136.927 593.78 139.57 590.201 141.212 587.573C142.265 586.21 143.173 584.741 143.922 583.189C142.697 584.395 141.597 585.721 140.638 587.146L133.117 596.998L125.613 606.85C124.513 608.178 123.551 609.614 122.74 611.136Z" fill="#FAFAFA"/>
<path d="M106.615 611.251C106.829 611.448 112.264 605.471 118.733 597.918C125.203 590.365 130.227 584.076 130.063 583.895C129.899 583.714 124.415 589.675 117.945 597.245C111.476 604.814 106.402 611.07 106.615 611.251Z" fill="#FAFAFA"/>
<path d="M178.469 730.017V716.914H80.3926V730.017H178.469Z" fill="#E0E0E0"/>
<path d="M93.7582 729.475C94.1031 729.475 94.3822 726.733 94.3822 723.334C94.3822 719.935 94.1031 717.209 93.7582 717.209C93.4134 717.209 93.1343 719.951 93.1343 723.334C93.1343 726.716 93.4134 729.475 93.7582 729.475Z" fill="#FAFAFA"/>
<path d="M91.624 729.754C91.9688 729.754 92.2479 726.995 92.2479 723.613C92.2479 720.23 91.9524 717.554 91.624 717.554C91.2956 717.554 91 720.296 91 723.695C91 727.094 91.2791 729.754 91.624 729.754Z" fill="#FAFAFA"/>
<path d="M170.899 729.475C171.228 729.475 171.507 726.733 171.507 723.334C171.507 719.935 171.228 717.209 170.899 717.209C170.571 717.209 170.275 719.951 170.275 723.334C170.275 726.716 170.555 729.475 170.899 729.475Z" fill="#FAFAFA"/>
<path d="M168.765 729.754C169.093 729.754 169.373 726.995 169.373 723.613C169.373 720.23 169.126 717.554 168.765 717.554C168.404 717.554 168.141 720.296 168.141 723.695C168.141 727.094 168.42 729.754 168.765 729.754Z" fill="#FAFAFA"/>
<path d="M155.99 723.071C155.99 722.726 144.759 722.464 130.917 722.464C117.075 722.464 105.811 722.726 105.811 723.071C105.811 723.416 117.058 723.695 130.917 723.695C144.775 723.695 155.99 723.416 155.99 723.071Z" fill="#FAFAFA"/>
<path d="M177.845 671.315V645.109H79.7685V671.315H177.845Z" fill="#E0E0E0"/>
<path d="M179.11 652.465L178.568 652.17C178.223 651.973 177.665 651.726 176.926 651.414C174.794 650.512 172.561 649.873 170.276 649.51C166.607 648.855 162.825 649.396 159.488 651.053C157.42 652.151 155.655 653.741 154.348 655.683C152.835 657.892 152.197 660.584 152.558 663.237C152.783 664.68 153.403 666.032 154.348 667.145C154.849 667.752 155.483 668.236 156.2 668.561C156.917 668.885 157.699 669.041 158.486 669.017C159.294 668.947 160.08 668.714 160.794 668.33C161.509 667.946 162.137 667.419 162.64 666.783C163.705 665.519 164.363 663.962 164.529 662.317C164.679 660.623 164.463 658.917 163.897 657.313C163.33 655.71 162.426 654.247 161.245 653.023C158.761 650.401 155.414 648.763 151.82 648.409C148.113 648.046 144.372 648.511 140.867 649.772C137.143 650.946 133.84 653.176 131.36 656.193C130.077 657.821 129.3 659.791 129.127 661.857C129.022 662.93 129.154 664.013 129.514 665.029C129.875 666.045 130.455 666.969 131.212 667.736C132.038 668.543 133.13 669.022 134.283 669.082C135.446 669.136 136.595 668.82 137.567 668.179C139.409 666.953 140.699 665.056 141.163 662.892C141.561 660.806 141.415 658.653 140.739 656.639C140.063 654.626 138.88 652.821 137.304 651.398C134.141 648.76 130.217 647.201 126.106 646.948C122.239 646.49 118.318 646.871 114.612 648.065C110.991 649.207 107.902 651.614 105.909 654.846C104.915 656.37 104.296 658.109 104.105 659.919C103.914 661.729 104.155 663.558 104.809 665.256C105.143 666.109 105.684 666.865 106.383 667.456C107.083 668.046 107.919 668.453 108.816 668.639C109.675 668.789 110.556 668.76 111.404 668.554C112.251 668.347 113.047 667.968 113.742 667.44C114.962 666.364 115.835 664.95 116.25 663.378C116.665 661.805 116.603 660.144 116.073 658.606C115.125 655.865 113.416 653.451 111.147 651.644C107.369 648.458 102.637 646.621 97.6992 646.423C93.999 646.276 90.3235 647.085 87.0262 648.771C84.9617 649.822 83.0862 651.209 81.4763 652.876C80.9344 653.467 80.5403 653.91 80.294 654.239C80.1563 654.392 80.0403 654.563 79.9492 654.748C82.0226 652.471 84.493 650.59 87.2397 649.198C90.4693 647.602 94.0521 646.856 97.65 647.03C102.413 647.293 106.956 649.123 110.573 652.235C112.692 653.949 114.285 656.225 115.17 658.803C115.628 660.151 115.677 661.604 115.312 662.98C114.947 664.356 114.184 665.594 113.118 666.537C112.536 666.978 111.87 667.293 111.16 667.462C110.451 667.632 109.714 667.652 108.996 667.522C108.256 667.376 107.565 667.043 106.991 666.554C106.416 666.066 105.976 665.438 105.712 664.731C105.149 663.19 104.953 661.539 105.138 659.909C105.323 658.279 105.885 656.714 106.779 655.339C108.654 652.359 111.53 650.146 114.891 649.099C118.421 647.979 122.149 647.626 125.827 648.065C129.671 648.321 133.334 649.793 136.286 652.268C137.705 653.549 138.77 655.174 139.379 656.985C139.989 658.797 140.122 660.735 139.767 662.613C139.374 664.462 138.279 666.086 136.713 667.145C136.006 667.658 135.143 667.909 134.271 667.856C133.399 667.802 132.573 667.446 131.935 666.849C131.315 666.2 130.847 665.421 130.563 664.57C130.279 663.718 130.187 662.814 130.293 661.923C130.443 660.093 131.135 658.35 132.28 656.915C134.615 654.088 137.716 651.995 141.212 650.889C144.545 649.672 148.107 649.213 151.639 649.542C154.977 649.839 158.093 651.338 160.407 653.762C161.509 654.86 162.363 656.182 162.909 657.638C163.456 659.094 163.684 660.651 163.576 662.202C163.33 665.076 161.13 667.9 158.486 668.064C157.837 668.092 157.191 667.968 156.598 667.703C156.006 667.438 155.483 667.039 155.071 666.537C154.223 665.556 153.656 664.365 153.429 663.089C153.098 660.64 153.683 658.155 155.071 656.11C156.281 654.253 157.927 652.72 159.865 651.644C163.069 650.011 166.708 649.436 170.259 650.002C172.502 650.31 174.704 650.86 176.827 651.644C178.321 652.186 179.093 652.514 179.11 652.465Z" fill="#FAFAFA"/>
<path d="M177.878 717.127V671.66H88.5531V717.127H177.878Z" fill="#EBEBEB"/>
<path d="M103.446 715.567C103.791 715.567 104.054 705.715 104.054 693.565C104.054 681.414 103.758 671.578 103.446 671.578C103.134 671.578 102.822 681.43 102.822 693.581C102.822 705.732 103.069 715.567 103.446 715.567Z" fill="#E0E0E0"/>
<path d="M110.178 716.126C110.523 716.126 110.802 706.405 110.802 694.402C110.802 682.399 110.523 672.678 110.178 672.678C109.834 672.678 109.571 682.415 109.571 694.402C109.571 706.388 109.834 716.126 110.178 716.126Z" fill="#E0E0E0"/>
<path d="M167.796 717.554C168.141 717.554 168.404 707.324 168.404 694.681C168.404 682.038 168.141 671.808 167.796 671.808C167.452 671.808 167.172 682.054 167.172 694.681C167.172 707.308 167.484 717.554 167.796 717.554Z" fill="#E0E0E0"/>
<path d="M159.832 716.979C160.177 716.979 160.456 706.996 160.456 694.697C160.456 682.399 160.177 672.399 159.832 672.399C159.487 672.399 159.274 682.382 159.274 694.697C159.274 707.012 159.487 716.979 159.832 716.979Z" fill="#E0E0E0"/>
<path d="M177.221 583.583V557.377H79.1446V583.583H177.221Z" fill="#EBEBEB"/>
<path d="M178.486 564.749L177.944 564.454C177.583 564.257 177.041 564.011 176.302 563.699C174.194 562.81 171.99 562.171 169.734 561.794C166.06 561.139 162.273 561.68 158.929 563.337C156.87 564.448 155.112 566.043 153.806 567.984C152.305 570.191 151.673 572.876 152.033 575.521C152.256 576.964 152.876 578.317 153.823 579.429C154.322 580.019 154.946 580.491 155.651 580.809C156.355 581.127 157.122 581.284 157.895 581.268C158.706 581.202 159.495 580.97 160.213 580.586C160.93 580.201 161.561 579.674 162.066 579.035C163.13 577.77 163.789 576.214 163.954 574.569C164.095 572.867 163.865 571.155 163.281 569.551C162.697 567.947 161.773 566.488 160.571 565.275C158.092 562.647 154.743 561.007 151.146 560.661C147.445 560.297 143.709 560.762 140.211 562.024C136.471 563.195 133.152 565.425 130.654 568.444C129.366 570.07 128.589 572.041 128.421 574.109C128.313 575.184 128.444 576.27 128.805 577.289C129.165 578.308 129.746 579.235 130.506 580.004C131.336 580.805 132.425 581.283 133.577 581.35C134.738 581.389 135.883 581.074 136.861 580.447C138.704 579.219 139.999 577.323 140.473 575.16C140.873 573.074 140.728 570.92 140.052 568.907C139.376 566.893 138.192 565.088 136.615 563.666C133.5 561.034 129.631 559.459 125.564 559.167C121.697 558.716 117.778 559.097 114.07 560.283C110.449 561.426 107.36 563.833 105.367 567.065C104.373 568.589 103.755 570.327 103.563 572.137C103.372 573.947 103.613 575.777 104.267 577.475C104.598 578.329 105.139 579.087 105.839 579.678C106.539 580.269 107.376 580.674 108.274 580.857C109.133 581.006 110.014 580.977 110.861 580.771C111.709 580.564 112.505 580.186 113.2 579.659C114.417 578.584 115.288 577.173 115.703 575.604C116.118 574.034 116.058 572.377 115.531 570.841C114.588 568.093 112.879 565.672 110.605 563.863C106.821 560.688 102.093 558.852 97.1574 558.641C94.1462 558.555 91.1498 559.094 88.3575 560.225C85.5652 561.355 83.0377 563.052 80.9345 565.209C80.5163 565.637 80.1268 566.093 79.7687 566.572C79.6342 566.722 79.5184 566.887 79.4238 567.065C81.4822 564.798 83.943 562.933 86.6815 561.564C90.4275 559.696 94.643 558.98 98.7958 559.506C102.949 560.032 106.852 561.777 110.014 564.52C112.144 566.224 113.739 568.503 114.612 571.088C115.073 572.436 115.126 573.891 114.764 575.27C114.401 576.649 113.64 577.89 112.576 578.838C111.992 579.273 111.325 579.583 110.616 579.75C109.907 579.917 109.171 579.936 108.454 579.807C107.712 579.667 107.018 579.336 106.442 578.846C105.867 578.357 105.428 577.726 105.17 577.015C104.598 575.476 104.397 573.823 104.583 572.192C104.768 570.56 105.335 568.995 106.238 567.623C108.102 564.634 110.982 562.419 114.349 561.383C117.879 560.262 121.608 559.909 125.285 560.349C129.091 560.622 132.712 562.094 135.629 564.552C137.055 565.833 138.125 567.459 138.738 569.274C139.351 571.089 139.485 573.031 139.127 574.913C138.728 576.756 137.634 578.373 136.073 579.429C135.372 579.925 134.522 580.167 133.664 580.113C132.807 580.059 131.994 579.714 131.36 579.133C130.743 578.482 130.277 577.704 129.993 576.852C129.709 576.001 129.616 575.099 129.718 574.207C129.885 572.41 130.57 570.699 131.689 569.281C134.014 566.448 137.103 564.34 140.588 563.206C143.921 561.989 147.483 561.529 151.015 561.86C154.351 562.163 157.465 563.662 159.783 566.079C160.883 567.178 161.734 568.5 162.278 569.956C162.822 571.413 163.047 572.969 162.936 574.519C162.706 577.409 160.506 580.217 157.846 580.398C157.199 580.417 156.556 580.288 155.967 580.021C155.378 579.753 154.858 579.354 154.447 578.854C153.593 577.878 153.025 576.684 152.805 575.406C152.472 572.962 153.057 570.482 154.447 568.444C155.664 566.572 157.321 565.027 159.274 563.945C162.476 562.305 166.117 561.73 169.668 562.303C171.909 562.62 174.11 563.171 176.236 563.945C176.972 564.251 177.723 564.52 178.486 564.749Z" fill="#FAFAFA"/>
<path d="M210.816 766.453V730.033H74.1855V766.453H210.816Z" fill="#F5F5F5"/>
<path d="M177.221 557.393V523.338H85.499V557.393H177.221Z" fill="#E0E0E0"/>
<path d="M131.245 522.468C131.794 522.199 132.285 521.825 132.69 521.368C133.912 520.213 134.943 518.872 135.744 517.394C136.941 515.194 137.683 512.777 137.928 510.284C138.21 507.213 137.701 504.121 136.45 501.303C135.169 498.331 133.593 495.736 132.673 493.191C131.733 491.011 131.431 488.607 131.803 486.262C132.095 484.692 132.85 483.245 133.971 482.108C134.775 481.303 135.383 481.04 135.334 480.958C134.714 481.065 134.141 481.357 133.692 481.796C132.397 482.892 131.492 484.378 131.114 486.032C130.595 488.518 130.83 491.102 131.787 493.454C132.706 496.13 134.283 498.758 135.514 501.664C136.694 504.336 137.201 507.256 136.992 510.169C136.795 512.552 136.149 514.875 135.087 517.017C134.021 518.976 132.732 520.805 131.245 522.468Z" fill="#FAFAFA"/>
<path d="M140.309 523.24C140.86 522.968 141.356 522.594 141.77 522.14C142.991 520.988 144.017 519.646 144.808 518.166C146.016 515.969 146.77 513.551 147.025 511.056C147.303 507.98 146.795 504.884 145.547 502.058C144.266 499.086 142.69 496.508 141.754 493.963C140.825 491.779 140.529 489.378 140.9 487.034C141.191 485.459 141.946 484.007 143.067 482.863C143.872 482.058 144.48 481.812 144.43 481.73C144.381 481.648 143.741 481.812 142.788 482.568C141.476 483.682 140.56 485.191 140.178 486.87C139.666 489.357 139.907 491.941 140.867 494.291C141.787 496.951 143.363 499.595 144.594 502.501C145.776 505.173 146.283 508.094 146.072 511.007C145.875 513.389 145.229 515.712 144.168 517.854C143.097 519.795 141.802 521.602 140.309 523.24Z" fill="#FAFAFA"/>
<path d="M110.934 522.681C111.229 522.681 111.459 513.289 111.459 501.729C111.459 490.17 111.229 480.794 110.934 480.794C110.638 480.794 110.425 490.17 110.425 501.729C110.425 513.289 110.655 522.681 110.934 522.681Z" fill="#FAFAFA"/>
<path d="M100.277 538.1C100.277 538.1 99.9488 538.248 99.6533 538.757C99.2559 539.519 99.1341 540.395 99.3085 541.236C99.4232 541.875 99.6846 542.48 100.072 543.001C100.459 543.522 100.962 543.947 101.542 544.241C102.304 544.522 103.132 544.574 103.924 544.392C104.715 544.211 105.437 543.803 106.001 543.218C106.565 542.633 106.947 541.897 107.1 541.099C107.252 540.301 107.17 539.476 106.862 538.724C106.546 538.156 106.103 537.67 105.567 537.302C105.031 536.935 104.418 536.696 103.775 536.606C102.929 536.464 102.06 536.615 101.312 537.033C100.803 537.345 100.638 537.657 100.671 537.689C101.596 537.267 102.628 537.141 103.627 537.328C104.131 537.438 104.606 537.656 105.017 537.968C105.428 538.28 105.766 538.678 106.008 539.134C106.212 539.709 106.253 540.33 106.125 540.926C105.996 541.523 105.704 542.072 105.282 542.512C104.859 542.952 104.322 543.265 103.731 543.417C103.14 543.568 102.518 543.553 101.936 543.371C101.471 543.147 101.061 542.826 100.732 542.429C100.403 542.033 100.164 541.57 100.031 541.072C99.804 540.08 99.89 539.041 100.277 538.1Z" fill="#FAFAFA"/>
<path d="M168.043 540.3C168.043 540.021 155.186 539.791 139.324 539.791C123.462 539.791 110.605 540.021 110.605 540.3C110.605 540.579 123.462 540.825 139.324 540.825C155.186 540.825 168.043 540.596 168.043 540.3Z" fill="#FAFAFA"/>
<path d="M761.461 77.601H612.532V324.114H761.461V77.601Z" fill="#E0E0E0"/>
<path d="M756.502 77.601H607.573V324.114H756.502V77.601Z" fill="#EBEBEB"/>
<path d="M750.148 82.5927H613.911V319.106H750.148V82.5927Z" fill="white"/>
<path d="M723.629 113.331H639.854V288.384H723.629V113.331Z" fill="#EBEBEB"/>
<path d="M639.854 226.432C639.657 210.012 654.37 194.117 670.56 191.835C678.277 190.751 686.487 192.278 693.696 189.323C706.569 184.035 710.674 166.926 723.629 161.852L724.22 288.384H639.854V226.432Z" fill="#E0E0E0"/>
<path d="M651.234 617.819C644.341 613.502 636.55 610.822 628.459 609.987C624.748 609.609 620.676 609.707 617.704 611.973C617.361 612.17 617.076 612.455 616.879 612.798C616.683 613.142 616.582 613.532 616.588 613.927C616.758 614.492 617.133 614.972 617.638 615.274C626.899 622.351 640.906 623.238 651.234 617.819Z" fill="#E0E0E0"/>
<path d="M650.643 617.179C645.371 613.315 640.453 608.991 635.947 604.256C631.42 599.489 628.236 593.608 626.719 587.212C626.423 586.265 626.336 585.266 626.463 584.282C626.591 583.299 626.93 582.354 627.458 581.514C639.165 590.66 648.377 602.499 650.643 617.195" fill="#E0E0E0"/>
<path d="M651.102 617.737C650.012 611.337 650.106 604.792 651.381 598.427C652.688 592.016 656.357 586.331 661.66 582.5C663.68 587.245 662.81 592.696 661.381 597.639C659.166 605.277 655.722 612.503 651.184 619.034" fill="#E0E0E0"/>
<path d="M662.596 638.311C655.618 639.165 649.542 642.843 644.337 647.556C639.104 652.323 635.459 658.582 633.894 665.486C640.741 665.059 646.537 660.232 650.741 654.83C654.944 649.427 657.867 643.483 662.498 638.41" fill="#E0E0E0"/>
<path d="M665.092 641.612C662.349 634.64 661.387 627.095 662.293 619.658C663.199 612.221 665.944 605.127 670.281 599.018C674.254 613.156 672.793 629.116 665.092 641.612Z" fill="#E0E0E0"/>
<path d="M680.264 659.69C673.879 659.276 667.513 660.755 661.963 663.941C656.414 667.128 651.928 671.88 649.066 677.604C648.689 678.376 648.344 679.361 648.869 680.051C649.14 680.306 649.466 680.494 649.823 680.6C650.18 680.706 650.556 680.726 650.922 680.658C657.063 680.248 662.498 676.57 666.981 672.448C671.463 668.327 675.388 663.384 680.33 659.756" fill="#E0E0E0"/>
<path d="M679.788 658.705C676.516 648.182 676.311 636.944 679.197 626.308C680.346 622.154 682.251 617.753 686.11 615.799C686.25 615.701 686.412 615.638 686.581 615.615C686.751 615.593 686.923 615.611 687.084 615.669C687.245 615.727 687.39 615.823 687.506 615.948C687.622 616.074 687.707 616.226 687.752 616.391C689.049 619.308 689.613 622.499 689.394 625.684C689.161 628.855 688.672 632.001 687.932 635.093C686.717 640.84 686.077 647.014 682.924 651.973C682.177 653.165 681.507 654.404 680.921 655.684C680.314 656.948 680.314 657.326 679.772 658.393" fill="#E0E0E0"/>
<path d="M719.951 664.682C716.979 653.368 720.148 639.641 727.275 630.348C727.8 629.674 728.506 628.935 729.36 629.018C730.674 629.132 731.002 630.889 731.002 632.203C730.47 643.85 726.656 655.109 720 664.682" fill="#E0E0E0"/>
<path d="M723.58 667.161C730.617 668.826 737.932 668.943 745.019 667.506C752.106 666.069 758.797 663.111 764.63 658.836C757.777 655.378 749.933 654.414 742.447 656.11C735.025 657.752 728.26 661.119 723.646 667.161" fill="#E0E0E0"/>
<path d="M726.634 659.624C734.335 647.063 749.113 638.869 763.826 638.114C762.184 644.107 757.258 648.754 751.658 651.562C745.979 654.124 739.973 655.886 733.81 656.8C731.429 657.26 728.178 657.769 726.634 659.641" fill="#E0E0E0"/>
<path d="M720.723 623.04C723.058 615.961 724.654 608.659 725.485 601.251C726.299 593.795 724.785 586.269 721.15 579.708C713.942 593.632 713.219 609.904 720.51 623.779" fill="#E0E0E0"/>
<path d="M744.959 610.824C753.366 595.537 770.541 583.321 787.914 581.596C781.214 598.296 762.939 611.152 744.959 610.824Z" fill="#E0E0E0"/>
<path d="M739.655 613.796C752.217 615.701 762.906 623.648 774.63 628.574C777.09 629.764 779.818 630.291 782.544 630.101C783.81 630.085 785.041 629.681 786.07 628.943C787.1 628.206 787.878 627.17 788.3 625.976C788.723 624.783 788.769 623.488 788.433 622.267C788.096 621.046 787.394 619.958 786.419 619.149C784.759 617.612 782.804 616.427 780.672 615.668C767.898 610.348 754.203 610.217 740.739 613.435" fill="#E0E0E0"/>
<path d="M732.332 622.597C735.173 623.402 736.141 624.88 738.391 626.801C746.087 633.317 755.185 637.964 764.975 640.38C765.993 640.643 767.323 640.741 767.832 639.822C768.341 638.902 767.701 638.049 767.142 637.342C762.877 632.349 757.348 628.595 751.133 626.472C745.008 624.19 739.639 621.448 732.398 622.039" fill="#E0E0E0"/>
<path d="M724.204 569.429C729.345 574.182 735.424 577.807 742.05 580.069C748.676 582.331 755.702 583.182 762.676 582.565C763.317 582.573 763.94 582.352 764.433 581.941C765.402 580.89 764.236 579.265 763.103 578.378C751.79 569.56 738.095 565.899 724.204 569.478" fill="#E0E0E0"/>
<path d="M733.974 565.866C740.784 560.851 748.685 557.519 757.03 556.144C765.375 554.768 773.927 555.388 781.986 557.952C775.704 563.779 767.639 567.314 759.097 567.984C750.663 568.76 742.159 568.043 733.974 565.866Z" fill="#E0E0E0"/>
<path d="M730.05 541.433C728.95 530.152 729.672 521.236 728.884 509.89C728.884 508.987 728.621 507.887 727.784 507.558C726.602 507.115 725.616 508.56 725.222 509.759C723.574 515.017 723.15 520.583 723.984 526.03C724.818 531.478 726.887 536.662 730.033 541.187" fill="#E0E0E0"/>
<path d="M729.245 542.681C736.624 537.923 742.982 531.744 747.948 524.504C751.642 519.447 754.762 513.388 753.924 507.198C751.322 507.26 748.765 507.892 746.433 509.05C744.101 510.207 742.051 511.862 740.427 513.897C737.199 517.978 734.856 522.686 733.547 527.723C732.053 532.649 731.002 537.804 729.245 542.681Z" fill="#E0E0E0"/>
<path d="M747.619 537.574C764.438 531.335 780.007 522.143 793.595 510.432C788.095 508.215 781.789 509.546 776.305 511.762C763.825 516.492 753.513 525.635 747.324 537.46" fill="#E0E0E0"/>
<path d="M734.417 548.871C742.907 549.791 751.544 550.398 759.967 548.986C768.39 547.574 776.091 544.323 783.842 541.056C784.529 540.875 785.118 540.433 785.484 539.824C785.607 539.467 785.618 539.08 785.515 538.716C785.412 538.352 785.201 538.028 784.909 537.788C784.313 537.318 783.616 536.992 782.873 536.836C774.449 534.471 765.369 535.588 757.077 538.379C749.188 541.074 741.604 544.59 734.45 548.871" fill="#E0E0E0"/>
<path d="M685.88 569.774C680.084 558.083 680.461 544.421 685.469 532.353C689 537.722 689.427 544.569 688.753 550.957C688.08 557.344 686.159 563.945 686.028 570.365" fill="#E0E0E0"/>
<path d="M662.728 558.132C655.469 558.045 648.272 559.474 641.596 562.327C634.921 565.179 628.914 569.394 623.96 574.7C631.273 575.582 638.681 574.207 645.191 570.759C651.651 567.312 657.742 563.213 663.368 558.526" fill="#E0E0E0"/>
<path d="M647.162 552.927C640.068 552.352 633.254 551.466 626.456 553.551C623.019 554.519 619.832 556.215 617.109 558.524C614.386 560.833 612.192 563.701 610.676 566.933C617.363 567.461 624.069 566.173 630.085 563.206C636.075 560.277 641.791 556.815 647.162 552.862" fill="#E0E0E0"/>
<path d="M670.215 553.157C663.844 548.986 657.293 544.734 649.887 543.009C642.482 541.285 633.861 542.55 628.689 548.149C634.699 551.663 641.989 552.09 648.951 552.073C655.913 552.057 664.435 551.991 671.003 554.323" fill="#E0E0E0"/>
<path d="M670.248 553.502C659.362 542.796 655.224 523.585 659.608 508.971C668.205 522.134 671.965 537.874 670.248 553.502Z" fill="#E0E0E0"/>
<path d="M700.198 523.191C702.251 518.429 703.696 513.339 705.535 508.544C707.215 503.611 709.799 499.034 713.154 495.047C716.557 491.039 721.398 488.527 726.634 488.052C724.96 495.419 721.767 502.357 717.26 508.421C712.754 514.485 707.032 519.544 700.461 523.273" fill="#E0E0E0"/>
<path d="M694.78 529.512C691.381 524.832 687.456 518.478 682.842 514.98C678.228 511.483 672.235 509.381 666.652 510.662C669.563 515.77 673.626 520.128 678.517 523.389C683.409 526.65 688.994 528.725 694.829 529.446" fill="#E0E0E0"/>
<path d="M695.863 523.585C693.414 518.007 691.612 512.167 690.494 506.179C689.374 500.148 690.329 493.915 693.203 488.495C699.196 499.792 701.117 511.926 696.159 523.716" fill="#E0E0E0"/>
<path d="M700.248 488.495C703.63 477.297 713.893 469.037 724.976 465.261C726.347 464.695 727.834 464.47 729.311 464.604C730.045 464.691 730.738 464.991 731.303 465.466C731.869 465.942 732.284 466.572 732.496 467.28C732.907 469.185 731.331 470.893 729.853 472.206C721.205 479.592 711.151 485.149 700.297 488.544" fill="#E0E0E0"/>
<path d="M700.379 479.333C700.806 472.108 701.249 464.785 703.663 457.987C706.076 451.189 710.543 444.719 717.127 441.731C718.26 449.021 715.042 456.279 711.15 462.552C707.259 468.824 702.595 474.768 700.264 481.763" fill="#E0E0E0"/>
<path d="M700.198 484.39C697.39 476.18 697.111 465.852 692.218 458.742C688.803 453.816 683.335 450.384 680.379 445.113C678.609 450.166 678.856 455.706 681.069 460.581C683.302 465.396 686.364 469.781 690.116 473.536C693.729 477.395 696.832 480.301 700.198 484.39Z" fill="#E0E0E0"/>
<path d="M700.247 724.746C700.034 724.746 699.837 670.281 699.82 603.107C699.804 535.932 699.985 481.451 700.198 481.451C700.411 481.451 700.609 535.916 700.609 603.107C700.609 670.297 700.461 724.746 700.247 724.746Z" fill="#E0E0E0"/>
<path d="M747.849 561.564C747.19 561.884 746.503 562.143 745.797 562.336L740.164 564.224C735.403 565.866 728.884 568.198 721.79 571.104C714.697 574.01 708.162 576.555 704.402 579.807C702.897 581.062 701.7 582.646 700.904 584.437C700.362 585.718 700.264 586.506 700.198 586.49C700.132 586.473 700.198 586.292 700.198 585.915C700.284 585.356 700.421 584.806 700.609 584.273C701.325 582.379 702.492 580.689 704.008 579.347C706.282 577.425 708.827 575.848 711.561 574.667C714.582 573.255 717.932 571.777 721.413 570.316C728.523 567.409 735.107 565.144 739.902 563.649C742.315 562.91 744.269 562.352 745.632 562.007C746.355 561.787 747.097 561.639 747.849 561.564Z" fill="#E0E0E0"/>
<path d="M763.53 523.272C763.363 523.497 763.17 523.701 762.955 523.88L761.215 525.522L754.647 531.45L732.94 550.792C724.451 558.329 717.127 565.57 712.053 570.973C709.508 573.682 707.505 575.899 706.142 577.541L704.5 579.347C704.328 579.572 704.129 579.775 703.909 579.954C704.042 579.703 704.202 579.466 704.385 579.248C704.714 578.805 705.19 578.165 705.847 577.344C707.144 575.702 709.131 573.419 711.577 570.644C718.133 563.471 725.06 556.647 732.332 550.201C740.838 542.681 748.572 535.916 754.204 531.039L760.887 525.292L762.742 523.765C762.982 523.568 763.247 523.402 763.53 523.272Z" fill="#E0E0E0"/>
<path d="M723.728 558.461C723.515 558.362 725.288 554.274 727.012 549.101C728.736 543.929 729.639 539.561 729.853 539.611C729.674 542.951 728.97 546.242 727.767 549.364C727.004 551.599 726.121 553.791 725.124 555.932C724.788 556.84 724.318 557.693 723.728 558.461Z" fill="#E0E0E0"/>
<path d="M700.297 591.432C699.808 590.974 699.373 590.461 699 589.905C698.113 588.772 696.98 587.343 695.716 585.619C692.908 581.99 689.016 576.966 684.665 571.482C680.314 565.997 676.291 561.071 673.401 557.508L669.936 553.354C669.481 552.853 669.085 552.302 668.754 551.712C669.271 552.134 669.744 552.607 670.166 553.124C671.036 554.076 672.268 555.456 673.778 557.196C676.783 560.677 680.855 565.554 685.272 571.038C689.689 576.523 693.482 581.613 696.159 585.34C697.505 587.196 698.589 588.723 699.312 589.773C699.699 590.289 700.029 590.845 700.297 591.432Z" fill="#E0E0E0"/>
<path d="M689.87 577.984C687.757 575.648 686.251 572.829 685.486 569.774C684.675 567.117 684.341 564.337 684.501 561.564H684.845C684.698 562.188 684.583 562.516 684.517 562.516C684.451 562.516 684.517 562.155 684.517 561.498H684.862C685.044 564.216 685.512 566.908 686.257 569.528C687.239 572.436 688.447 575.264 689.87 577.984Z" fill="#E0E0E0"/>
<path d="M676.389 561.088C675.452 560.368 674.425 559.772 673.335 559.314C670.59 558.495 667.702 558.265 664.862 558.641C661.982 558.858 659.126 559.319 656.324 560.02C655.174 560.383 654 560.662 652.81 560.858C653.856 560.231 654.991 559.766 656.176 559.479C658.978 558.607 661.87 558.056 664.797 557.837C667.747 557.443 670.748 557.764 673.549 558.773C674.734 559.195 675.737 560.012 676.389 561.088Z" fill="#E0E0E0"/>
<path d="M673.22 556.983C673.22 557.098 671.43 556.26 668.54 555.341C660.959 552.756 652.847 552.134 644.961 553.535C641.956 554.077 640.134 554.651 640.035 554.52C640.42 554.278 640.841 554.101 641.283 553.994C642.436 553.582 643.616 553.247 644.813 552.993C652.773 551.255 661.068 551.889 668.672 554.815C669.793 555.259 670.889 555.763 671.956 556.326C672.409 556.478 672.835 556.7 673.22 556.983Z" fill="#E0E0E0"/>
<path d="M700.198 539.61C698.808 535.736 697.667 531.776 696.783 527.755C695.644 523.804 694.761 519.784 694.139 515.719C695.528 519.589 696.669 523.543 697.555 527.558C698.687 531.516 699.57 535.542 700.198 539.61Z" fill="#E0E0E0"/>
<path d="M700.412 539.61C699.325 537.158 698.063 534.788 696.635 532.517C695.038 530.367 693.167 528.435 691.069 526.77C691.862 526.972 692.598 527.354 693.22 527.887C694.798 529.038 696.169 530.448 697.276 532.057C698.971 534.253 700.053 536.86 700.412 539.61Z" fill="#E0E0E0"/>
<path d="M700.247 695.715C700.247 695.715 700.001 694.402 699.393 692.087C698.49 688.833 697.269 685.676 695.748 682.661C691.988 674.96 685.141 665.223 676.438 655.454C672.136 650.528 667.949 645.881 664.402 641.431C661.211 637.517 658.329 633.361 655.782 629.001C654.074 626.059 652.619 622.977 651.431 619.789C651.037 618.656 650.741 617.77 650.577 617.146C650.467 616.844 650.396 616.529 650.363 616.21C650.363 616.21 650.823 617.458 651.726 619.674C653.004 622.801 654.519 625.826 656.258 628.722C658.862 633.008 661.771 637.101 664.961 640.971C668.524 645.372 672.711 650.002 677.029 654.928C685.765 664.78 692.596 674.632 696.257 682.415C697.742 685.485 698.893 688.705 699.689 692.021C699.9 692.92 700.059 693.83 700.165 694.747C700.233 695.065 700.261 695.39 700.247 695.715Z" fill="#E0E0E0"/>
<path d="M743.252 647.129C742.535 647.608 741.783 648.03 741.002 648.393C738.965 649.546 737.012 650.841 735.156 652.268C732.42 654.394 729.856 656.733 727.488 659.263C724.779 662.104 722.004 665.421 719.18 668.967C713.515 676.061 708.211 682.35 705.042 687.374C703.4 689.87 702.251 691.972 701.495 693.433C701.135 694.223 700.718 694.986 700.248 695.715C700.29 695.493 700.361 695.278 700.461 695.075C700.625 694.665 700.855 694.057 701.216 693.302C702.186 691.164 703.283 689.086 704.5 687.079C708.808 680.617 713.478 674.406 718.49 668.475C721.331 664.912 724.139 661.611 726.897 658.754C729.321 656.224 731.952 653.901 734.762 651.808C736.663 650.404 738.685 649.174 740.805 648.13C741.544 647.753 742.151 647.523 742.562 647.342C742.782 647.242 743.014 647.17 743.252 647.129Z" fill="#E0E0E0"/>
<path d="M744.105 662.892C742.536 663.233 740.945 663.463 739.343 663.582C735.511 663.975 731.724 664.723 728.03 665.815C724.383 666.998 720.963 668.792 717.915 671.118C715.583 672.925 714.483 674.402 714.385 674.32C714.286 674.238 714.565 673.893 715.091 673.22C715.833 672.298 716.663 671.451 717.57 670.691C720.583 668.169 724.058 666.257 727.8 665.059C731.541 663.942 735.397 663.259 739.294 663.023C740.89 662.834 742.501 662.79 744.105 662.892Z" fill="#E0E0E0"/>
<path d="M715.765 672.596C715.518 672.448 717.669 669.164 719.328 664.764C720.986 660.363 721.265 656.406 721.544 656.455C721.662 657.302 721.634 658.163 721.462 659C721.232 661.055 720.769 663.076 720.083 665.026C719.353 666.957 718.423 668.806 717.308 670.543C716.917 671.312 716.395 672.007 715.765 672.596Z" fill="#E0E0E0"/>
<path d="M757.192 604.814C756.951 604.979 756.692 605.117 756.42 605.225L754.187 606.243C753.202 606.67 752.02 607.195 750.673 607.885C749.327 608.574 747.751 609.297 746.125 610.282L743.531 611.76C742.628 612.269 741.724 612.893 740.789 613.484C738.867 614.65 736.946 616.078 734.894 617.54C726.121 624.078 718.468 631.997 712.234 640.987C710.838 643.089 709.476 645.06 708.375 647.014C707.817 647.982 707.242 648.885 706.733 649.805L705.338 652.465C704.418 654.107 703.696 655.749 703.105 657.095C702.514 658.442 701.955 659.657 701.578 660.659C701.2 661.66 700.872 662.301 700.625 662.925C700.379 663.549 700.28 663.713 700.248 663.696C700.306 663.418 700.383 663.144 700.477 662.875L701.282 660.544C701.627 659.526 702.087 658.294 702.711 656.915C703.335 655.536 703.942 653.91 704.845 652.202L706.192 649.526C706.668 648.59 707.242 647.67 707.834 646.685C708.917 644.698 710.264 642.712 711.659 640.577C717.877 631.472 725.594 623.488 734.483 616.965C736.552 615.504 738.506 614.075 740.444 612.926C741.413 612.351 742.316 611.743 743.235 611.284L745.879 609.839C747.521 608.886 749.163 608.197 750.509 607.54C751.856 606.883 753.087 606.374 754.089 605.996L756.388 605.11C756.644 604.983 756.914 604.883 757.192 604.814Z" fill="#E0E0E0"/>
<path d="M723.153 627.622C723.476 626.526 724.13 625.556 725.025 624.847C727.116 623.02 729.786 621.99 732.562 621.94C735.289 621.954 737.985 622.513 740.493 623.582C741.562 623.917 742.575 624.409 743.498 625.044C742.412 624.82 741.346 624.507 740.312 624.108C737.828 623.256 735.221 622.818 732.595 622.811C729.985 622.867 727.46 623.753 725.386 625.339C724.588 626.046 723.842 626.808 723.153 627.622Z" fill="#E0E0E0"/>
<path d="M718.063 632.876C720.332 628.491 720.916 623.426 719.705 618.64C720.153 619.235 720.457 619.927 720.592 620.66C721.057 622.398 721.185 624.209 720.969 625.996C720.747 627.786 720.19 629.518 719.327 631.103C718.72 632.301 718.145 632.925 718.063 632.876Z" fill="#E0E0E0"/>
<path d="M662.629 703.515C663.812 724.335 670.084 745.501 679.723 766.896H721.676C730.887 745.714 736.716 724.565 737.751 703.515H662.629Z" fill="#E0E0E0"/>
<path d="M730.953 737.258C730.953 737.472 717.143 737.652 700.116 737.652C683.088 737.652 669.263 737.472 669.263 737.258C669.263 737.045 683.072 736.864 700.116 736.864C717.16 736.864 730.953 736.979 730.953 737.258Z" fill="#FAFAFA"/>
<path d="M730.017 744.729C730.017 744.959 717.078 745.123 701.101 745.123C685.125 745.123 672.186 744.959 672.186 744.729C672.186 744.499 685.125 744.335 701.101 744.335C717.078 744.335 730.017 744.516 730.017 744.729Z" fill="#FAFAFA"/>
<path d="M680.396 717.176C680.921 723.608 680.921 730.071 680.396 736.503C679.87 730.071 679.87 723.608 680.396 717.176Z" fill="#FAFAFA"/>
<path d="M702.875 717.176C703.4 723.838 703.4 730.531 702.875 737.192C702.349 730.531 702.349 723.838 702.875 717.176Z" fill="#FAFAFA"/>
<path d="M723.991 717.012C724.516 723.805 724.516 730.629 723.991 737.422C723.465 730.629 723.465 723.805 723.991 717.012Z" fill="#FAFAFA"/>
<path d="M736.421 717.176C736.421 717.39 720.231 717.57 700.297 717.57C680.363 717.57 664.173 717.39 664.173 717.176C664.173 716.963 680.363 716.782 700.297 716.782C720.231 716.782 736.421 716.963 736.421 717.176Z" fill="#FAFAFA"/>
<path d="M292.637 127.616V293.836H53.9068L45.3027 128.782L292.637 127.616Z" fill="#E0E0E0"/>
<path d="M45.3193 128.766L45.3193 293.475H284.05V128.766L45.3193 128.766Z" fill="white"/>
<path d="M285.183 294.624H44.1699V127.649H285.183V294.624ZM46.4359 292.358H282.884V129.915H46.4359V292.358Z" fill="#E0E0E0"/>
<path d="M258.188 149.241H71.1646V273.015H258.188V149.241Z" fill="white"/>
<path d="M258.188 149.241C258.188 149.241 257.86 149.241 257.268 149.241H254.608H244.33L205.792 149.389L71.1478 149.652L71.6897 149.11C71.6897 186.876 71.6897 228.829 71.6897 272.884L71.0986 272.293L258.122 272.408L257.646 272.884C257.761 235.217 257.843 204.33 257.892 182.82C257.892 172.065 257.991 163.675 258.024 157.911C258.024 155.071 258.024 152.887 258.024 151.343C258.024 149.8 258.024 149.061 258.024 149.061C258.024 149.061 258.024 149.783 258.024 151.245C258.024 152.706 258.024 154.89 258.024 157.698C258.024 163.428 258.024 171.786 258.155 182.492C258.155 204.068 258.287 235.036 258.401 272.802V273.262H257.925L70.9015 273.393H70.606V272.802C70.606 228.747 70.606 186.843 70.606 149.028V148.486H71.1478L206.137 148.749L244.543 148.897H254.707H257.318L258.188 149.241Z" fill="#E0E0E0"/>
<path d="M45.3028 128.322C46.7792 129.03 48.1588 129.924 49.4078 130.982C51.8544 132.739 55.1876 135.235 58.7672 138.109C62.3467 140.982 65.5158 143.708 67.7489 145.744C69.0254 146.767 70.1724 147.941 71.1643 149.241C70.9508 149.488 65.2038 144.759 58.0283 139.045C50.8527 133.33 45.1057 128.585 45.3028 128.322Z" fill="#E0E0E0"/>
<path d="M284.066 128.782C284.263 129.045 278.631 133.823 271.505 139.472C264.379 145.12 258.369 149.504 258.205 149.324C258.041 149.143 263.623 144.283 270.766 138.634C277.909 132.986 283.836 128.519 284.066 128.782Z" fill="#E0E0E0"/>
<path d="M283.853 293.508L257.236 271.932L283.853 293.508Z" fill="white"/>
<path d="M257.236 271.932C257.449 271.685 263.574 276.316 270.914 282.26C278.253 288.204 284.05 293.261 283.853 293.508C283.656 293.754 277.531 289.14 270.175 283.179C262.819 277.219 257.039 272.194 257.236 271.932Z" fill="#E0E0E0"/>
<path d="M45.3029 293.491C45.1059 293.228 50.6723 288.565 57.7329 282.9C64.7935 277.235 70.7047 273.048 70.8689 273.245C71.0331 273.442 65.4995 278.171 58.4389 283.836C51.3783 289.501 45.5164 293.737 45.3029 293.491Z" fill="#E0E0E0"/>
<path d="M109.144 187.812V229.256H226.826V187.812H109.144Z" fill="#E0E0E0"/>
<path d="M758.883 766.371C758.883 766.601 600.693 766.798 405.59 766.798C210.488 766.798 52.2646 766.601 52.2646 766.371C52.2646 766.141 210.422 765.944 405.59 765.944C600.758 765.944 758.883 766.141 758.883 766.371Z" fill="#263238"/>
<path d="M139.061 734.549C139.061 734.549 134.874 756.962 171.753 758.604C208.632 760.246 284.558 762.069 284.558 762.069L279.797 713.909L161.573 705.699L142.69 719.59L139.061 734.549Z" fill="#E0E0E0"/>
<path d="M538.674 74.202H186.695C172.186 74.202 160.423 85.9644 160.423 100.474V740.427C160.423 754.937 172.186 766.699 186.695 766.699H538.674C553.184 766.699 564.946 754.937 564.946 740.427V100.474C564.946 85.9644 553.184 74.202 538.674 74.202Z" fill="#263238"/>
<path d="M182.705 105.958H542.648V740.394H191.26C188.991 740.394 186.815 739.493 185.211 737.888C183.606 736.284 182.705 734.108 182.705 731.839V105.958Z" fill="white"/>
<path d="M398.037 90.8355H321.06C319.841 90.8355 318.671 90.3511 317.809 89.4889C316.947 88.6266 316.462 87.4572 316.462 86.2379C316.462 85.0185 316.947 83.8491 317.809 82.9869C318.671 82.1246 319.841 81.6403 321.06 81.6403H398.037C399.256 81.6403 400.426 82.1246 401.288 82.9869C402.15 83.8491 402.635 85.0185 402.635 86.2379C402.635 87.4572 402.15 88.6266 401.288 89.4889C400.426 90.3511 399.256 90.8355 398.037 90.8355Z" fill="#455A64"/>
<path d="M231.785 173.74V178.256H231.423C231.189 177.196 230.612 176.244 229.781 175.546C229.05 174.933 228.125 174.602 227.171 174.61C226.373 174.604 225.593 174.845 224.937 175.3C224.268 175.751 223.748 176.391 223.443 177.139C223.018 178.181 222.811 179.298 222.836 180.423C222.823 181.501 222.972 182.575 223.279 183.609C223.502 184.461 223.984 185.224 224.658 185.792C225.366 186.311 226.229 186.571 227.105 186.531C227.888 186.541 228.662 186.355 229.354 185.989C230.184 185.508 230.918 184.879 231.522 184.134V185.251C230.882 185.949 230.105 186.508 229.24 186.893C228.36 187.255 227.416 187.434 226.465 187.418C225.178 187.443 223.905 187.155 222.754 186.581C221.694 186.045 220.819 185.204 220.241 184.167C219.677 183.164 219.378 182.034 219.371 180.883C219.374 179.636 219.708 178.411 220.34 177.336C220.969 176.247 221.883 175.35 222.983 174.742C224.062 174.138 225.278 173.821 226.514 173.822C227.51 173.841 228.495 174.041 229.42 174.413C229.775 174.577 230.151 174.693 230.537 174.758C230.637 174.76 230.736 174.742 230.829 174.706C230.922 174.669 231.007 174.614 231.079 174.545C231.247 174.339 231.35 174.087 231.374 173.822L231.785 173.74Z" fill="#263238"/>
<path d="M237.203 174.052V179.257C237.594 178.818 238.054 178.446 238.566 178.157C238.96 177.945 239.4 177.833 239.847 177.829C240.372 177.815 240.884 177.99 241.292 178.321C241.672 178.605 241.953 179.002 242.096 179.454C242.258 180.17 242.324 180.905 242.293 181.638V185.152C242.253 185.587 242.315 186.026 242.474 186.433C242.687 186.637 242.968 186.754 243.262 186.761V187.106H238.697V186.761C238.838 186.747 238.975 186.705 239.099 186.638C239.223 186.57 239.332 186.478 239.42 186.367C239.578 185.983 239.64 185.566 239.6 185.152V181.113C239.624 180.645 239.591 180.176 239.502 179.717C239.455 179.54 239.351 179.384 239.206 179.274C239.076 179.168 238.914 179.11 238.747 179.109C238.471 179.118 238.206 179.216 237.991 179.389C237.67 179.64 237.403 179.952 237.203 180.308V185.136C237.167 185.541 237.218 185.949 237.351 186.334C237.438 186.454 237.552 186.554 237.682 186.625C237.813 186.696 237.958 186.737 238.106 186.745V187.089H233.542V186.745C233.694 186.739 233.844 186.703 233.982 186.638C234.121 186.573 234.244 186.481 234.346 186.367C234.502 185.976 234.558 185.553 234.51 185.136V175.99C234.551 175.56 234.489 175.126 234.33 174.725C234.117 174.521 233.836 174.404 233.542 174.397V174.052H237.203Z" fill="#263238"/>
<path d="M249.453 185.76C248.671 186.578 247.623 187.091 246.497 187.204C246.262 187.211 246.027 187.17 245.808 187.084C245.589 186.997 245.39 186.867 245.223 186.701C245.055 186.535 244.923 186.337 244.835 186.119C244.746 185.901 244.703 185.667 244.707 185.431C244.715 185.079 244.798 184.733 244.951 184.415C245.104 184.098 245.323 183.817 245.594 183.592C246.775 182.688 248.073 181.948 249.453 181.392V180.489C249.483 180.058 249.444 179.626 249.338 179.208C249.254 179.015 249.11 178.854 248.927 178.748C248.721 178.619 248.481 178.551 248.238 178.551C247.872 178.536 247.511 178.634 247.203 178.83C247.131 178.872 247.07 178.932 247.027 179.004C246.984 179.075 246.96 179.157 246.957 179.241C246.983 179.431 247.076 179.606 247.22 179.733C247.437 179.947 247.565 180.234 247.581 180.538C247.581 180.689 247.551 180.838 247.492 180.976C247.433 181.114 247.346 181.239 247.236 181.343C246.983 181.566 246.654 181.684 246.317 181.671C245.942 181.677 245.578 181.542 245.298 181.293C245.172 181.19 245.069 181.06 244.998 180.912C244.927 180.764 244.89 180.603 244.888 180.439C244.905 179.948 245.104 179.479 245.446 179.126C245.858 178.671 246.386 178.336 246.973 178.157C247.627 177.927 248.316 177.81 249.009 177.812C249.728 177.775 250.44 177.964 251.045 178.354C251.473 178.645 251.804 179.057 251.998 179.536C252.129 180.146 252.179 180.769 252.146 181.392V184.889C252.117 185.146 252.117 185.405 252.146 185.661C252.166 185.754 252.211 185.839 252.277 185.907C252.352 185.931 252.432 185.931 252.507 185.907C252.671 185.907 252.835 185.792 253.016 185.562L253.295 185.792C253.046 186.205 252.71 186.558 252.31 186.827C251.958 187.038 251.554 187.146 251.144 187.139C250.709 187.168 250.278 187.039 249.929 186.778C249.655 186.505 249.487 186.144 249.453 185.76ZM249.453 185.053V182.049C248.811 182.418 248.252 182.915 247.811 183.51C247.566 183.805 247.432 184.177 247.433 184.561C247.432 184.704 247.458 184.845 247.512 184.978C247.566 185.11 247.645 185.231 247.745 185.333C247.832 185.422 247.937 185.492 248.053 185.537C248.169 185.582 248.294 185.602 248.418 185.595C248.813 185.532 249.176 185.342 249.453 185.053Z" fill="#263238"/>
<path d="M257.794 186.17V189.454C257.771 189.771 257.81 190.089 257.909 190.39C257.971 190.55 258.087 190.684 258.238 190.768C258.535 190.859 258.846 190.898 259.157 190.883V191.227H254.018V190.883C254.181 190.888 254.344 190.86 254.496 190.801C254.648 190.741 254.787 190.652 254.904 190.538C255.082 190.182 255.15 189.783 255.101 189.388V179.963C255.147 179.544 255.067 179.121 254.871 178.748C254.757 178.642 254.622 178.56 254.476 178.507C254.329 178.453 254.173 178.429 254.018 178.436V178.091H257.794V179.274C258.042 178.874 258.372 178.533 258.763 178.272C259.216 177.973 259.747 177.813 260.29 177.812C260.945 177.813 261.58 178.033 262.096 178.436C262.66 178.891 263.086 179.494 263.328 180.177C263.614 180.932 263.759 181.734 263.755 182.541C263.766 183.394 263.615 184.241 263.311 185.037C263.052 185.692 262.614 186.261 262.047 186.679C261.576 187.02 261.021 187.224 260.442 187.271C259.863 187.317 259.282 187.203 258.763 186.942C258.396 186.745 258.068 186.483 257.794 186.17ZM257.794 185.201C257.973 185.525 258.228 185.8 258.537 186.003C258.846 186.206 259.2 186.331 259.568 186.367C259.745 186.361 259.918 186.307 260.068 186.212C260.218 186.117 260.34 185.983 260.421 185.825C261.105 183.79 261.105 181.588 260.421 179.553C260.322 179.38 260.178 179.238 260.005 179.139C259.832 179.041 259.635 178.991 259.436 178.994C258.796 178.994 258.254 179.454 257.794 180.39V185.201Z" fill="#263238"/>
<path d="M268.877 174.791V178.075H271.012V178.978H268.877V184.528C268.837 184.861 268.837 185.197 268.877 185.53C268.92 185.673 269.006 185.799 269.124 185.891C269.22 185.975 269.341 186.027 269.468 186.039C269.879 186.039 270.273 185.727 270.651 185.086L270.946 185.3C270.777 185.837 270.44 186.305 269.985 186.636C269.53 186.967 268.98 187.144 268.418 187.139C267.889 187.161 267.37 186.992 266.956 186.663C266.602 186.398 266.339 186.031 266.201 185.612C266.146 185.022 266.146 184.428 266.201 183.838V178.912H265.019V178.568C265.772 178.048 266.465 177.448 267.087 176.778C267.657 176.129 268.153 175.418 268.565 174.66L268.877 174.791Z" fill="#263238"/>
<path d="M279.485 182.262H274.559C274.56 183.282 274.895 184.274 275.511 185.086C275.702 185.34 275.951 185.545 276.236 185.685C276.521 185.825 276.836 185.895 277.153 185.891C277.524 185.89 277.885 185.775 278.188 185.563C278.601 185.252 278.948 184.861 279.206 184.413L279.534 184.627C279.168 185.451 278.604 186.173 277.892 186.728C277.295 187.144 276.583 187.362 275.856 187.352C275.259 187.385 274.663 187.26 274.13 186.989C273.597 186.718 273.144 186.311 272.818 185.809C272.24 184.892 271.954 183.821 271.997 182.738C271.923 181.433 272.359 180.149 273.213 179.159C273.56 178.737 273.996 178.398 274.49 178.165C274.984 177.932 275.524 177.812 276.07 177.812C276.523 177.816 276.97 177.919 277.378 178.115C277.787 178.311 278.147 178.594 278.434 178.945C279.164 179.892 279.537 181.067 279.485 182.262ZM277.121 181.622C277.149 180.905 277.088 180.188 276.94 179.487C276.866 179.151 276.688 178.846 276.431 178.617C276.276 178.496 276.085 178.432 275.889 178.436C275.721 178.437 275.555 178.483 275.411 178.57C275.266 178.656 275.148 178.78 275.068 178.929C274.652 179.639 274.453 180.455 274.493 181.277V181.622H277.121Z" fill="#263238"/>
<path d="M284.345 178.091V180.127C284.77 179.41 285.327 178.781 285.987 178.272C286.367 177.998 286.817 177.838 287.284 177.812C287.445 177.804 287.607 177.831 287.757 177.891C287.907 177.95 288.042 178.041 288.154 178.157C288.267 178.284 288.352 178.433 288.406 178.593C288.459 178.754 288.48 178.924 288.466 179.093C288.49 179.454 288.379 179.811 288.154 180.095C288.062 180.204 287.946 180.292 287.816 180.352C287.685 180.412 287.543 180.442 287.399 180.439C287.073 180.445 286.756 180.328 286.512 180.111L286.086 179.75C286.01 179.733 285.931 179.733 285.856 179.75C285.66 179.752 285.472 179.828 285.33 179.963C285.05 180.207 284.845 180.526 284.739 180.883C284.522 181.55 284.416 182.25 284.427 182.952V185.546C284.396 185.775 284.396 186.007 284.427 186.236C284.491 186.4 284.614 186.535 284.772 186.613C285.017 186.715 285.279 186.77 285.544 186.778V187.122H280.618V186.778C280.765 186.781 280.911 186.754 281.047 186.697C281.182 186.64 281.305 186.556 281.406 186.449C281.601 185.994 281.675 185.496 281.619 185.004V180.078C281.662 179.751 281.662 179.42 281.619 179.093C281.574 178.934 281.476 178.794 281.34 178.699C281.144 178.589 280.924 178.527 280.7 178.518V178.173L284.345 178.091Z" fill="#263238"/>
<path d="M299.681 173.773V184.446C299.659 184.957 299.692 185.469 299.78 185.973C299.857 186.201 300.015 186.393 300.223 186.515C300.558 186.683 300.933 186.757 301.307 186.728H301.602V187.09H294.739V186.728H295.084C295.488 186.758 295.893 186.69 296.266 186.531C296.492 186.427 296.669 186.239 296.758 186.006C296.872 185.466 296.91 184.914 296.873 184.364V177.599C296.891 177.219 296.864 176.839 296.791 176.466C296.721 176.306 296.607 176.169 296.463 176.072C296.301 175.969 296.112 175.918 295.921 175.924C295.511 175.943 295.109 176.044 294.739 176.219L294.558 175.875L299.353 173.691L299.681 173.773Z" fill="#263238"/>
<path d="M248.911 258.188V268.746H247.942C247.562 266.891 246.868 265.114 245.89 263.492C245.102 262.394 244.044 261.517 242.819 260.947C241.591 260.521 240.291 260.342 238.993 260.421H236.087V290.519C236.008 291.771 236.119 293.027 236.415 294.246C236.699 294.81 237.153 295.269 237.712 295.56C238.523 295.975 239.43 296.168 240.34 296.118H241.637V297.202H221.145V296.135H222.442C223.392 296.177 224.336 295.974 225.184 295.544C225.714 295.225 226.124 294.74 226.35 294.164C226.649 292.979 226.76 291.755 226.678 290.535V260.421H223.854C221.806 260.231 219.76 260.817 218.123 262.063C216.366 263.837 215.255 266.15 214.971 268.631H213.871V258.073L248.911 258.188Z" fill="#263238"/>
<path d="M500.974 214.839C500.974 215.086 486.196 215.266 468.003 215.266C449.809 215.266 435.031 215.086 435.031 214.839C435.031 214.593 449.809 214.412 468.003 214.412C486.196 214.412 500.974 214.609 500.974 214.839Z" fill="#263238"/>
<path d="M500.219 266.119C500.219 266.349 446.41 266.546 380.041 266.546C313.671 266.546 259.863 266.349 259.863 266.119C259.863 265.889 313.655 265.692 380.041 265.692C446.427 265.692 500.219 265.873 500.219 266.119Z" fill="#263238"/>
<path d="M500.219 282.637C500.219 282.884 446.41 283.064 380.041 283.064C313.671 283.064 259.863 282.884 259.863 282.637C259.863 282.391 313.655 282.21 380.041 282.21C446.427 282.21 500.219 282.424 500.219 282.637Z" fill="#263238"/>
<path d="M500.219 299.173C500.219 299.419 446.41 299.599 380.041 299.599C313.671 299.599 259.863 299.419 259.863 299.173C259.863 298.926 313.655 298.746 380.041 298.746C446.427 298.746 500.219 298.943 500.219 299.173Z" fill="#263238"/>
<path d="M500.219 315.707C500.219 315.937 435.639 316.134 355.986 316.134C276.332 316.134 211.752 315.937 211.752 315.707C211.752 315.478 276.316 315.281 355.986 315.281C435.656 315.281 500.219 315.478 500.219 315.707Z" fill="#263238"/>
<path d="M500.219 332.242C500.219 332.472 435.639 332.669 355.986 332.669C276.332 332.669 211.752 332.472 211.752 332.242C211.752 332.012 276.316 331.815 355.986 331.815C435.656 331.815 500.219 331.996 500.219 332.242Z" fill="#263238"/>
<path d="M374.195 348.777C374.195 349.007 337.825 349.204 292.982 349.204C248.139 349.204 211.752 349.007 211.752 348.777C211.752 348.547 248.106 348.334 292.982 348.334C337.858 348.334 374.195 348.531 374.195 348.777Z" fill="#263238"/>
<path d="M500.219 365.296C500.219 365.542 435.639 365.723 355.986 365.723C276.332 365.723 211.752 365.542 211.752 365.296C211.752 365.05 276.316 364.869 355.986 364.869C435.656 364.869 500.219 365.066 500.219 365.296Z" fill="#263238"/>
<path d="M500.219 381.831C500.219 382.061 435.639 382.258 355.986 382.258C276.332 382.258 211.752 382.061 211.752 381.831C211.752 381.601 276.316 381.404 355.986 381.404C435.656 381.404 500.219 381.601 500.219 381.831Z" fill="#263238"/>
<path d="M500.219 398.366C500.219 398.596 435.639 398.793 355.986 398.793C276.332 398.793 211.752 398.596 211.752 398.366C211.752 398.136 276.316 397.939 355.986 397.939C435.656 397.939 500.219 398.119 500.219 398.366Z" fill="#263238"/>
<path d="M500.219 414.901C500.219 415.13 435.639 415.327 355.986 415.327C276.332 415.327 211.752 415.13 211.752 414.901C211.752 414.671 276.316 414.474 355.986 414.474C435.656 414.474 500.219 414.654 500.219 414.901Z" fill="#263238"/>
<path d="M500.219 431.419C500.219 431.665 435.639 431.846 355.986 431.846C276.332 431.846 211.752 431.665 211.752 431.419C211.752 431.173 276.316 430.992 355.986 430.992C435.656 430.992 500.219 431.189 500.219 431.419Z" fill="#263238"/>
<path d="M259.863 447.954C259.863 448.2 249.091 448.381 235.807 448.381C222.524 448.381 211.818 448.266 211.818 447.954C211.818 447.642 222.573 447.527 235.873 447.527C249.173 447.527 259.863 447.724 259.863 447.954Z" fill="#263238"/>
<path d="M500.219 464.489C500.219 464.719 435.639 464.916 355.985 464.916C276.332 464.916 211.818 464.686 211.818 464.489C211.818 464.292 276.381 464.062 356.051 464.062C435.721 464.062 500.219 464.259 500.219 464.489Z" fill="#263238"/>
<path d="M500.219 481.106C500.219 481.336 435.639 481.533 355.985 481.533C276.332 481.533 211.818 481.254 211.818 481.106C211.818 480.958 276.381 480.679 356.051 480.679C435.721 480.679 500.219 480.778 500.219 481.106Z" fill="#263238"/>
<path d="M500.219 497.526C500.219 497.772 435.639 497.953 355.985 497.953C276.332 497.953 211.818 497.789 211.818 497.526C211.818 497.263 276.381 497.099 356.051 497.099C435.721 497.099 500.219 497.313 500.219 497.526Z" fill="#263238"/>
<path d="M433.193 514.077C433.193 514.324 383.621 514.504 322.472 514.504C261.324 514.504 211.752 514.324 211.752 514.077C211.752 513.831 261.308 513.65 322.472 513.65C383.637 513.65 433.193 513.847 433.193 514.077Z" fill="#263238"/>
<path d="M500.219 530.612C500.219 530.842 435.639 531.039 355.986 531.039C276.332 531.039 211.752 530.842 211.752 530.612C211.752 530.383 276.316 530.186 355.986 530.186C435.656 530.186 500.219 530.366 500.219 530.612Z" fill="#263238"/>
<path d="M500.219 547.147C500.219 547.377 435.639 547.574 355.986 547.574C276.332 547.574 211.752 547.377 211.752 547.147C211.752 546.917 276.316 546.72 355.986 546.72C435.656 546.72 500.219 546.901 500.219 547.147Z" fill="#263238"/>
<path d="M461.402 563.682C461.402 563.912 405.574 564.109 336.61 564.109C267.646 564.109 211.818 563.912 211.818 563.682C211.818 563.452 267.646 563.239 336.61 563.239C405.574 563.239 461.402 563.436 461.402 563.682Z" fill="#263238"/>
<path d="M500.219 580.201C500.219 580.447 435.639 580.628 355.985 580.628C276.332 580.628 211.818 580.447 211.818 580.201C211.818 579.955 276.381 579.774 356.051 579.774C435.721 579.774 500.219 579.971 500.219 580.201Z" fill="#263238"/>
<path d="M500.219 613.271C500.219 613.501 435.639 613.698 355.986 613.698C276.332 613.698 211.752 613.501 211.752 613.271C211.752 613.041 276.316 612.844 355.986 612.844C435.656 612.844 500.219 613.024 500.219 613.271Z" fill="#263238"/>
<path d="M500.219 629.806C500.219 630.035 435.639 630.233 355.985 630.233C276.332 630.233 211.818 630.035 211.818 629.806C211.818 629.576 276.381 629.379 356.051 629.379C435.721 629.379 500.219 629.559 500.219 629.806Z" fill="#263238"/>
<path d="M500.219 646.324C500.219 646.57 435.639 646.751 355.986 646.751C276.332 646.751 211.752 646.57 211.752 646.324C211.752 646.078 276.316 645.897 355.986 645.897C435.656 645.897 500.219 646.094 500.219 646.324Z" fill="#263238"/>
<path d="M365.017 695.108L364.097 697.62H356.413V697.259C358.177 695.744 359.778 694.049 361.191 692.201C362.006 691.177 362.487 689.928 362.57 688.622C362.585 688.247 362.526 687.873 362.397 687.52C362.267 687.168 362.069 686.845 361.815 686.569C361.583 686.318 361.301 686.118 360.987 685.982C360.673 685.846 360.334 685.778 359.992 685.781C359.372 685.772 358.765 685.968 358.268 686.339C357.729 686.756 357.333 687.33 357.135 687.981H356.79C356.863 686.951 357.3 685.979 358.022 685.239C358.35 684.923 358.739 684.676 359.165 684.512C359.591 684.349 360.045 684.272 360.501 684.287C360.99 684.273 361.476 684.356 361.933 684.531C362.389 684.705 362.807 684.968 363.161 685.305C363.493 685.613 363.758 685.987 363.939 686.402C364.12 686.817 364.213 687.266 364.212 687.719C364.209 688.402 364.052 689.075 363.752 689.689C363.167 690.9 362.39 692.008 361.454 692.973C359.812 694.73 358.859 695.781 358.449 696.142H361.864C362.353 696.153 362.841 696.125 363.325 696.06C363.596 696.008 363.852 695.902 364.081 695.748C364.317 695.566 364.513 695.337 364.655 695.075L365.017 695.108Z" fill="#263238"/>
<path d="M366.544 691.167C366.517 689.855 366.745 688.55 367.217 687.325C367.581 686.376 368.201 685.546 369.007 684.927C369.522 684.536 370.149 684.318 370.796 684.303C371.334 684.327 371.859 684.477 372.327 684.743C372.795 685.008 373.193 685.381 373.489 685.831C374.557 687.324 375.084 689.137 374.983 690.97C375.021 692.287 374.798 693.598 374.327 694.829C374.015 695.739 373.445 696.538 372.685 697.127C372.125 697.577 371.432 697.831 370.714 697.85C370.044 697.806 369.399 697.578 368.851 697.189C368.303 696.801 367.874 696.268 367.611 695.65C366.874 694.273 366.506 692.728 366.544 691.167ZM368.432 691.413C368.385 692.909 368.613 694.401 369.105 695.814C369.466 696.766 370.014 697.242 370.747 697.242C371.153 697.228 371.539 697.065 371.831 696.783C372.276 696.337 372.569 695.763 372.668 695.141C373.008 693.605 373.157 692.033 373.112 690.461C373.144 689.208 372.989 687.957 372.652 686.75C372.516 686.13 372.209 685.561 371.765 685.108C371.608 684.987 371.428 684.899 371.236 684.847C371.045 684.796 370.845 684.783 370.648 684.809C370.452 684.835 370.262 684.899 370.09 684.998C369.918 685.098 369.768 685.23 369.647 685.387C369.106 686.116 368.776 686.979 368.695 687.883C368.52 689.052 368.432 690.232 368.432 691.413Z" fill="#263238"/>
<path d="M185.546 738.785C173.329 717.948 147.517 717.718 139.044 734.549V120.884C138.983 115.374 140.923 110.028 144.504 105.839C148.086 101.651 153.065 98.9044 158.519 98.1095C165.694 97.19 172.213 99.9321 183.313 106.319L185.546 738.785Z" fill="white"/>
<path d="M185.546 738.785C185.546 734.27 184.364 460.154 182.869 106.352L183.083 106.714C179.702 104.716 176.222 102.891 172.656 101.246C169.07 99.4878 165.154 98.5032 161.162 98.3559C157.08 98.3825 153.091 99.5792 149.668 101.804C146.232 104.059 143.478 107.21 141.705 110.917C140.789 112.858 140.138 114.912 139.767 117.025C139.467 119.157 139.357 121.311 139.439 123.462C139.439 127.841 139.439 132.176 139.439 136.467V213.181C139.439 246.711 139.439 279.37 139.439 311.159C139.439 374.606 139.439 434.096 139.439 488.117C139.439 596.161 139.291 682.3 139.258 734.549L138.93 734.467C140.912 730.509 144.065 727.258 147.961 725.156C151.375 723.387 155.166 722.469 159.011 722.48C160.722 722.463 162.431 722.6 164.118 722.89C164.922 723.038 165.76 723.285 166.466 723.465C167.212 723.639 167.943 723.875 168.65 724.171C169.996 724.641 171.298 725.229 172.541 725.928L174.282 726.897C174.807 727.242 175.316 727.62 175.809 727.981C176.761 728.6 177.652 729.309 178.469 730.099C179.241 730.838 179.996 731.478 180.62 732.151C181.649 733.289 182.619 734.478 183.526 735.714C184.823 737.718 185.415 738.604 185.562 738.851L183.461 735.78C182.771 734.729 181.687 733.646 180.521 732.233C179.897 731.577 179.142 730.936 178.37 730.214C177.536 729.443 176.641 728.74 175.694 728.112C175.201 727.767 174.709 727.39 174.183 727.045L172.443 726.109C171.205 725.415 169.908 724.833 168.568 724.368C167.867 724.08 167.141 723.855 166.4 723.695C165.645 723.514 164.873 723.285 164.085 723.12C162.408 722.85 160.71 722.724 159.011 722.743C155.204 722.764 151.458 723.704 148.092 725.485C144.257 727.56 141.16 730.772 139.225 734.68L138.897 735.337V734.614C138.897 682.366 138.798 596.227 138.716 488.183C138.716 434.161 138.716 374.672 138.716 311.225C138.716 279.479 138.716 246.82 138.716 213.247V162.345C138.716 153.773 138.716 145.158 138.716 136.5V123.462C138.642 121.266 138.763 119.068 139.077 116.894C139.457 114.701 140.131 112.569 141.081 110.556C142.908 106.716 145.746 103.447 149.291 101.098C152.836 98.7946 156.967 97.5527 161.195 97.5184C165.31 97.6672 169.348 98.6739 173.05 100.474C176.728 102.116 180.16 104.07 183.543 105.991L183.756 106.123V106.369C184.758 460.154 185.546 734.27 185.546 738.785Z" fill="#263238"/>
<path d="M517.903 448.775C517.778 448.777 517.654 448.747 517.542 448.69C517.431 448.633 517.335 448.549 517.263 448.447C517.13 448.275 517.072 448.057 517.099 447.842C517.127 447.626 517.239 447.43 517.411 447.297L526.737 440.237L517.476 434.358C517.383 434.303 517.302 434.229 517.237 434.141C517.173 434.054 517.127 433.954 517.103 433.848C517.078 433.742 517.075 433.632 517.094 433.525C517.113 433.418 517.154 433.316 517.214 433.225C517.271 433.134 517.345 433.054 517.433 432.991C517.521 432.928 517.62 432.883 517.726 432.859C517.831 432.834 517.94 432.831 518.046 432.849C518.153 432.867 518.255 432.905 518.347 432.963L528.609 439.531C528.723 439.598 528.818 439.694 528.884 439.81C528.95 439.925 528.986 440.055 528.987 440.187C528.995 440.319 528.971 440.451 528.917 440.571C528.862 440.692 528.779 440.797 528.675 440.877L518.412 448.66C518.26 448.753 518.081 448.793 517.903 448.775Z" fill="#E0E0E0"/>
<g opacity="0.3">
<path d="M451.336 105.958V181.687C451.339 182.036 451.444 182.377 451.639 182.666C451.834 182.956 452.11 183.181 452.433 183.314C452.755 183.448 453.11 183.483 453.452 183.415C453.795 183.348 454.11 183.181 454.358 182.935L472.6 164.693C472.935 164.363 473.386 164.178 473.856 164.178C474.327 164.178 474.778 164.363 475.113 164.693L493.339 182.935C493.586 183.186 493.902 183.358 494.247 183.429C494.593 183.5 494.951 183.466 495.277 183.332C495.603 183.198 495.882 182.97 496.077 182.677C496.273 182.384 496.377 182.04 496.376 181.687V105.958H451.336Z" fill="black"/>
</g>
<path d="M447.494 105.958V174.692C447.493 175.045 447.597 175.389 447.793 175.682C447.989 175.975 448.268 176.203 448.594 176.337C448.92 176.471 449.278 176.505 449.623 176.434C449.968 176.363 450.285 176.192 450.532 175.94L468.774 157.714C468.937 157.547 469.131 157.415 469.345 157.324C469.559 157.234 469.79 157.187 470.022 157.187C470.255 157.187 470.485 157.234 470.7 157.324C470.914 157.415 471.108 157.547 471.27 157.714L489.513 175.94C489.76 176.192 490.076 176.363 490.422 176.434C490.767 176.505 491.125 176.471 491.451 176.337C491.777 176.203 492.056 175.975 492.252 175.682C492.447 175.389 492.552 175.045 492.551 174.692V105.958H447.494Z" fill="#38289D"/>
<path d="M595.586 210.751C595.914 204.905 599.494 201.326 604.535 198.337C607.074 196.869 609.928 196.034 612.858 195.902C615.787 195.771 618.706 196.347 621.365 197.582C624.896 199.224 627.933 202.13 631.858 202.623C638.245 203.444 644.288 197.533 650.56 199.01C652.431 199.454 654.091 200.534 655.255 202.064C656.419 203.595 657.017 205.482 656.945 207.404C656.873 209.326 656.137 211.164 654.862 212.603C653.587 214.043 651.852 214.996 649.953 215.299C654.123 215.907 656.521 221.194 654.879 225.151C653.237 229.108 648.951 231.358 644.731 231.456C640.479 231.31 636.347 230.01 632.777 227.696C629.132 225.578 625.717 223.016 621.907 221.128C618.153 219.099 613.802 218.465 609.625 219.338C604.108 220.8 600.184 226.021 598.739 231.555C597.294 237.088 597.918 242.934 598.739 248.599C599.56 254.264 600.693 259.961 600.151 265.659C600.17 265.994 600.109 266.328 599.972 266.634C599.834 266.94 599.626 267.208 599.363 267.416C598.509 267.876 597.54 267.071 596.916 266.332C589.881 257.937 584.564 248.24 581.268 237.795C579.33 231.736 578.263 225.824 580.578 219.913C582.893 214.002 590.709 208.337 595.619 210.751" fill="#263238"/>
<path d="M590.201 238.96L599.544 296.611C601.284 307.382 608.279 317.793 625.192 314.246C639.608 310.075 638.541 299.698 636.686 286.907C636.686 286.907 652.547 282.769 651.135 266.628C650.446 258.829 647.72 242.868 645.093 228.468C643.735 220.999 639.613 214.317 633.548 209.752C627.483 205.187 619.92 203.075 612.368 203.838L610.808 203.986C594.125 206.711 587.064 222.36 590.201 238.96Z" fill="#FFBF9D"/>
<path d="M636.669 286.907C629.217 287.63 621.713 286.206 615.044 282.802C615.044 282.802 621.382 294.805 637.309 291.734L636.669 286.907Z" fill="#FF9A6C"/>
<path d="M641.907 244.658C641.973 245.257 641.802 245.859 641.431 246.334C641.059 246.809 640.518 247.121 639.92 247.203C639.63 247.257 639.331 247.252 639.043 247.188C638.754 247.124 638.481 247.003 638.241 246.831C638 246.659 637.797 246.441 637.642 246.189C637.488 245.937 637.386 245.656 637.342 245.364C637.277 244.765 637.448 244.163 637.819 243.688C638.19 243.213 638.732 242.901 639.329 242.819C639.619 242.767 639.917 242.774 640.205 242.839C640.493 242.904 640.764 243.026 641.004 243.197C641.245 243.368 641.448 243.586 641.603 243.837C641.758 244.087 641.861 244.367 641.907 244.658Z" fill="#263238"/>
<path d="M642.4 236.727C642.153 237.056 640.281 235.939 637.802 236.202C635.323 236.464 633.631 237.844 633.336 237.597C633.04 237.351 633.418 236.908 634.157 236.251C635.153 235.404 636.385 234.883 637.687 234.757C638.978 234.623 640.278 234.905 641.398 235.561C642.219 236.07 642.531 236.579 642.4 236.727Z" fill="#263238"/>
<path d="M620.052 246.842C620.117 247.441 619.946 248.043 619.575 248.518C619.204 248.993 618.662 249.305 618.065 249.387C617.774 249.441 617.476 249.436 617.187 249.372C616.899 249.308 616.626 249.187 616.386 249.015C616.145 248.843 615.941 248.625 615.787 248.373C615.633 248.121 615.531 247.84 615.487 247.548C615.421 246.951 615.59 246.352 615.958 245.877C616.325 245.402 616.863 245.089 617.458 245.003C617.749 244.949 618.048 244.954 618.338 245.018C618.628 245.081 618.901 245.202 619.143 245.374C619.385 245.545 619.59 245.764 619.746 246.016C619.902 246.268 620.006 246.549 620.052 246.842Z" fill="#263238"/>
<path d="M618.098 239.732C617.835 240.06 615.964 238.944 613.484 239.19C611.005 239.436 609.313 240.832 609.018 240.602C608.722 240.372 609.116 239.913 609.839 239.256C610.838 238.402 612.077 237.88 613.386 237.762C614.675 237.623 615.975 237.899 617.097 238.55C617.901 238.977 618.229 239.502 618.098 239.732Z" fill="#263238"/>
<path d="M628.886 257.121C630.148 256.567 631.479 256.186 632.843 255.988C633.467 255.857 634.042 255.676 634.108 255.233C634.102 254.571 633.89 253.928 633.5 253.394L631.152 248.763C627.868 242.195 625.405 236.711 625.684 236.579C625.963 236.448 628.82 241.702 632.121 248.303L634.387 252.967C634.86 253.689 635.069 254.554 634.978 255.413C634.906 255.645 634.783 255.859 634.618 256.037C634.453 256.216 634.251 256.356 634.026 256.448C633.682 256.575 633.323 256.658 632.958 256.694C631.623 257.002 630.256 257.146 628.886 257.121Z" fill="#263238"/>
<path d="M617.753 229.88C617.589 230.586 615.077 230.52 612.203 231.161C609.33 231.801 607.064 232.803 606.62 232.261C606.407 231.998 606.752 231.325 607.638 230.619C608.819 229.683 610.202 229.036 611.678 228.731C613.146 228.404 614.672 228.432 616.128 228.813C617.244 229.059 617.835 229.535 617.753 229.88Z" fill="#263238"/>
<path d="M640.774 229.65C640.397 230.258 638.623 229.847 636.571 230.028C634.518 230.208 632.827 230.783 632.367 230.241C632.154 229.979 632.367 229.387 633.073 228.764C634.013 228.016 635.159 227.574 636.357 227.499C637.568 227.397 638.78 227.678 639.822 228.304C640.643 228.813 640.938 229.355 640.774 229.65Z" fill="#263238"/>
<path d="M592.762 250.766C592.483 250.668 581.268 248.599 582.811 259.584C584.355 270.569 595.011 266.841 594.979 266.513C594.946 266.185 592.762 250.766 592.762 250.766Z" fill="#FFBF9D"/>
<path d="M591.021 262.802C591.021 262.802 590.857 262.966 590.545 263.147C590.118 263.408 589.604 263.491 589.117 263.377C588.352 263.018 587.695 262.466 587.211 261.774C586.727 261.083 586.433 260.277 586.358 259.436C586.215 258.498 586.276 257.54 586.539 256.628C586.601 256.275 586.746 255.941 586.963 255.656C587.18 255.37 587.463 255.141 587.787 254.986C587.999 254.903 588.234 254.895 588.452 254.964C588.67 255.032 588.859 255.174 588.985 255.364C589.166 255.659 589.133 255.889 589.182 255.889C589.231 255.889 589.396 255.676 589.182 255.232C589.089 254.967 588.902 254.745 588.657 254.609C588.324 254.416 587.929 254.363 587.557 254.461C587.119 254.612 586.726 254.873 586.416 255.217C586.106 255.562 585.888 255.98 585.783 256.431C585.45 257.447 585.366 258.528 585.537 259.584C585.616 260.568 585.982 261.508 586.589 262.287C587.195 263.066 588.017 263.65 588.952 263.968C589.248 263.999 589.546 263.969 589.829 263.878C590.111 263.788 590.372 263.639 590.594 263.442C591.12 263.065 591.12 262.819 591.021 262.802Z" fill="#FF9A6C"/>
<path d="M643.763 213.46C641.87 210.499 639.275 208.051 636.209 206.334C629.754 202.322 622.198 200.449 614.617 200.981C607.019 201.583 599.953 205.116 594.913 210.833C591.051 215.513 588.642 221.221 587.984 227.253C587.346 233.263 587.904 239.34 589.626 245.134C590.175 247.745 591.47 250.141 593.353 252.031C594.601 253.098 596.637 253.673 597.836 252.556C598.464 251.801 598.827 250.861 598.87 249.88C600.135 241.161 601.301 231.818 597.36 223.92C599.106 220.898 601.453 218.266 604.256 216.186C605.659 215.156 607.252 214.416 608.943 214.007C610.635 213.598 612.39 213.529 614.108 213.805C619.182 214.823 622.696 219.306 626.949 222.228C630.016 224.305 633.533 225.623 637.21 226.074C640.887 226.526 644.619 226.096 648.098 224.823L643.763 213.46Z" fill="#263238"/>
<path d="M631.119 263.804C630.987 264.849 630.711 265.872 630.298 266.842C630.083 267.323 629.769 267.753 629.375 268.104C628.982 268.455 628.518 268.719 628.016 268.878C627.468 268.992 626.9 268.967 626.364 268.807C625.828 268.646 625.34 268.355 624.945 267.958C624.174 267.134 623.68 266.089 623.533 264.97C623.369 263.968 623.533 262.704 624.534 262.375C624.945 262.277 625.372 262.277 625.782 262.375L631.382 263.393" fill="#FF9A6C"/>
<path d="M629.937 268.484C629.02 268.745 628.061 268.829 627.113 268.73C626.135 268.564 625.252 268.044 624.633 267.269C624.279 266.791 624.027 266.246 623.895 265.666C623.762 265.087 623.75 264.486 623.861 263.902C623.919 263.6 624.018 263.307 624.157 263.032C624.305 262.786 624.272 262.802 624.502 262.786C624.732 262.769 625.093 262.884 625.405 262.934L626.324 263.098C627.523 263.328 628.607 263.508 629.51 263.64C630.486 263.885 631.495 263.973 632.498 263.902C631.603 263.441 630.638 263.13 629.641 262.983L626.489 262.26L625.569 262.047C625.233 261.967 624.893 261.907 624.551 261.866C624.286 261.842 624.021 261.906 623.796 262.047C623.583 262.186 623.417 262.387 623.319 262.622C623.143 262.969 623.016 263.339 622.942 263.722C622.799 264.436 622.816 265.173 622.992 265.88C623.168 266.587 623.498 267.247 623.96 267.81C624.726 268.742 625.83 269.332 627.03 269.452C627.801 269.535 628.579 269.404 629.28 269.075C629.773 268.763 629.97 268.533 629.937 268.484Z" fill="#263238"/>
<path d="M654.238 201.26C654.342 201.49 654.413 201.733 654.452 201.982C654.589 202.697 654.617 203.427 654.534 204.15C654.35 205.483 653.902 206.767 653.217 207.925C652.532 209.084 651.623 210.095 650.544 210.899C648.895 212.02 647.041 212.804 645.088 213.204C643.135 213.605 641.121 213.613 639.165 213.23C634.698 212.623 630.232 210.472 625.569 208.55C620.906 206.629 616.127 205.266 611.842 206.12C608.023 206.841 604.556 208.818 601.99 211.736C600.238 213.677 598.823 215.897 597.803 218.304C597.113 219.946 596.867 221.013 596.785 220.997C596.811 220.747 596.86 220.499 596.932 220.258C597.099 219.562 597.307 218.876 597.556 218.205C598.481 215.71 599.856 213.406 601.612 211.408C604.197 208.35 607.748 206.265 611.678 205.496C616.16 204.643 621.119 205.973 625.799 207.91C630.478 209.848 634.879 211.966 639.214 212.59C643.002 213.376 646.947 212.626 650.182 210.504C652.3 208.977 653.742 206.687 654.205 204.117C654.331 203.17 654.342 202.21 654.238 201.26Z" fill="#455A64"/>
<path d="M582.089 234.806C582.033 233.775 582.178 232.744 582.516 231.768C583.178 229.388 584.293 227.158 585.8 225.2C586.646 224.123 587.604 223.138 588.657 222.261C589.514 221.474 590.551 220.91 591.678 220.619C592.451 220.448 593.258 220.535 593.977 220.865C594.47 221.128 594.65 221.374 594.617 221.407C593.738 220.988 592.741 220.884 591.793 221.112C589.596 222.05 587.715 223.6 586.375 225.578C584.898 227.485 583.745 229.62 582.959 231.9C582.385 233.591 582.204 234.806 582.089 234.806Z" fill="#455A64"/>
<path d="M584.995 244.231C585.03 243.196 585.241 242.174 585.619 241.21C586.433 238.814 587.68 236.588 589.297 234.642C590.903 232.714 592.851 231.099 595.044 229.88C595.928 229.333 596.9 228.944 597.918 228.731C597.918 228.846 596.883 229.322 595.307 230.373C591.162 232.987 587.941 236.834 586.095 241.374C585.787 242.348 585.42 243.302 584.995 244.231Z" fill="#455A64"/>
<path d="M682.662 696.208L707.817 729.278L720.165 761.182C720.377 761.725 720.699 762.219 721.11 762.634C721.521 763.048 722.012 763.374 722.554 763.591C723.095 763.808 723.676 763.911 724.259 763.895C724.842 763.879 725.416 763.744 725.945 763.497C726.56 763.211 727.097 762.781 727.511 762.244C727.926 761.707 728.205 761.078 728.326 760.41C729.886 751.773 735.485 719.935 733.514 717.62C731.216 714.927 709.295 680.97 709.295 680.97L682.662 696.208Z" fill="#455A64"/>
<g opacity="0.6">
<path d="M725.944 763.53L731.856 715.37L732.89 716.799C733.79 718.026 734.221 719.534 734.105 721.051C733.793 725.124 732.677 736.306 728.424 760.377C728.3 761.066 728.01 761.713 727.577 762.263C727.145 762.813 726.584 763.248 725.944 763.53Z" fill="white"/>
</g>
<g opacity="0.6">
<path d="M717.094 709.525C716.897 710.127 716.931 710.782 717.189 711.361C717.447 711.941 717.91 712.404 718.49 712.661C719.085 712.883 719.744 712.866 720.326 712.611C720.908 712.357 721.369 711.886 721.61 711.298C721.804 710.663 721.759 709.978 721.484 709.373C721.209 708.769 720.722 708.285 720.116 708.014C719.469 707.852 718.785 707.949 718.209 708.283C717.633 708.617 717.209 709.163 717.029 709.804" fill="white"/>
</g>
<path d="M722.973 743.251C721.424 742.666 719.746 742.51 718.116 742.799C716.486 743.088 714.965 743.811 713.712 744.893C713.63 744.893 713.859 744.269 714.565 743.58C715.525 742.72 716.71 742.15 717.981 741.938C719.249 741.716 720.555 741.864 721.741 742.365C722.628 742.709 723.038 743.169 722.973 743.251Z" fill="#263238"/>
<path d="M723.843 749.491C722.488 749.652 721.145 749.893 719.82 750.214C717.702 750.936 716.437 752.348 716.224 752.167C716.01 751.987 717.11 750.181 719.508 749.343C720.19 749.022 720.939 748.867 721.693 748.893C722.447 748.919 723.184 749.124 723.843 749.491Z" fill="#263238"/>
<path d="M723.252 734.253C721.141 734.31 719.038 734.535 716.963 734.926C714.956 735.6 713.002 736.424 711.117 737.389C712.628 735.76 714.574 734.599 716.725 734.043C718.876 733.487 721.141 733.56 723.252 734.253Z" fill="#263238"/>
<path d="M716.438 723.547C716.438 723.827 714.073 724.385 711.594 726.06C709.114 727.734 707.62 729.688 707.39 729.541C708.22 727.821 709.499 726.356 711.091 725.302C712.683 724.247 714.53 723.641 716.438 723.547Z" fill="#263238"/>
<path d="M709.344 713.663C707.528 714.235 705.803 715.065 704.221 716.126C702.809 717.405 701.582 718.875 700.576 720.493C700.461 720.493 700.576 719.771 700.986 718.753C701.602 717.443 702.517 716.296 703.658 715.406C704.799 714.516 706.134 713.908 707.554 713.63C708.622 713.433 709.344 713.548 709.344 713.663Z" fill="#263238"/>
<path d="M702.891 714.27C702.891 714.27 702.447 713.909 701.922 713.039C701.186 711.788 700.706 710.404 700.51 708.966C700.284 707.929 700.399 706.846 700.838 705.88C701.008 705.568 701.274 705.319 701.596 705.171C701.919 705.023 702.281 704.984 702.628 705.059C703.297 705.22 703.882 705.623 704.27 706.192C705.015 707.377 705.322 708.785 705.139 710.173C704.956 711.561 704.295 712.842 703.268 713.794C702.233 714.712 700.95 715.303 699.579 715.493C698.209 715.683 696.813 715.463 695.567 714.861C695.258 714.705 694.986 714.486 694.768 714.217C694.55 713.948 694.392 713.636 694.303 713.301C694.243 712.95 694.298 712.589 694.461 712.272C694.624 711.955 694.885 711.7 695.206 711.544C696.161 711.128 697.209 710.969 698.244 711.085C699.69 711.157 701.112 711.479 702.447 712.037C702.95 712.205 703.414 712.473 703.81 712.825C702.011 712.197 700.131 711.832 698.228 711.741C697.322 711.67 696.412 711.828 695.584 712.201C695.409 712.284 695.266 712.423 695.177 712.595C695.088 712.767 695.058 712.963 695.091 713.154C695.166 713.369 695.285 713.566 695.441 713.733C695.596 713.9 695.785 714.032 695.994 714.122C697.081 714.616 698.288 714.784 699.468 714.607C700.648 714.429 701.752 713.913 702.645 713.121C703.508 712.314 704.073 711.238 704.246 710.069C704.419 708.9 704.19 707.706 703.597 706.684C703.342 706.276 702.944 705.977 702.48 705.847C702.29 705.805 702.092 705.825 701.914 705.905C701.737 705.985 701.59 706.12 701.495 706.29C701.121 707.106 701.006 708.017 701.167 708.901C701.411 710.78 701.996 712.6 702.891 714.27Z" fill="#263238"/>
<path d="M658.984 712.07L654.058 745.599C654.058 745.599 686.717 759.376 686.405 765.665L620.84 760.952L626.325 708.408L658.984 712.07Z" fill="#455A64"/>
<g opacity="0.6">
<path d="M634.19 740.542C633.541 740.669 632.961 741.03 632.561 741.557C632.161 742.084 631.97 742.74 632.022 743.399C632.12 744.051 632.464 744.641 632.983 745.047C633.502 745.453 634.157 745.645 634.814 745.583C635.503 745.448 636.119 745.064 636.543 744.503C636.967 743.943 637.17 743.246 637.112 742.545C636.934 741.877 636.505 741.303 635.915 740.943C635.325 740.582 634.619 740.462 633.943 740.608" fill="white"/>
</g>
<g opacity="0.6">
<path d="M620.873 760.952L621.431 755.648L684.583 762.413C685.226 762.807 685.761 763.356 686.137 764.01C686.513 764.665 686.718 765.403 686.734 766.157L620.873 760.952Z" fill="white"/>
</g>
<path d="M655.158 745.37C655.158 745.698 653.516 745.665 651.874 746.519C650.232 747.373 649.214 748.621 648.935 748.456C648.655 748.292 649.329 746.519 651.381 745.517C653.434 744.516 655.289 745.09 655.158 745.37Z" fill="#263238"/>
<path d="M661.726 748.966C661.726 749.278 660.314 749.672 659.099 750.903C657.884 752.135 657.457 753.53 657.079 753.481C656.702 753.432 656.751 751.593 658.311 750.099C659.871 748.604 661.726 748.654 661.726 748.966Z" fill="#263238"/>
<path d="M664.714 757.586C664.419 757.586 664.156 755.944 665.158 754.302C666.159 752.66 667.736 752.102 667.851 752.381C667.966 752.66 666.931 753.498 666.11 754.877C665.289 756.256 665.01 757.586 664.714 757.586Z" fill="#263238"/>
<path d="M655.453 737.619C655.289 737.898 653.811 737.291 652.054 737.209C650.297 737.127 648.77 737.554 648.639 737.209C648.508 736.864 649.969 735.928 652.104 736.043C654.238 736.158 655.634 737.373 655.453 737.619Z" fill="#263238"/>
<g opacity="0.3">
<path d="M657.999 718.703L657.145 724.68L625.06 720.871L625.618 715.469L657.999 718.703Z" fill="black"/>
</g>
<path d="M656.307 730.838C655.199 731.007 654.065 730.877 653.023 730.46C651.874 730.122 650.771 729.642 649.739 729.032C649.122 728.672 648.53 728.272 647.966 727.833C647.617 727.59 647.312 727.29 647.063 726.946C646.892 726.707 646.8 726.42 646.8 726.125C646.8 725.831 646.892 725.544 647.063 725.304C647.248 725.1 647.478 724.942 647.734 724.843C647.991 724.743 648.267 724.704 648.541 724.73C648.957 724.772 649.366 724.871 649.756 725.025C650.432 725.275 651.086 725.583 651.71 725.945C652.757 726.571 653.703 727.351 654.518 728.26C655.88 729.902 656.258 731.084 656.16 731.133C656.061 731.183 655.371 730.148 653.959 728.818C653.135 728.045 652.213 727.382 651.217 726.848C650.635 726.543 650.031 726.279 649.411 726.06C648.738 725.813 648.147 725.731 647.933 726.06C647.72 726.388 647.851 726.207 647.933 726.437C648.13 726.678 648.356 726.894 648.606 727.078C649.13 727.499 649.678 727.889 650.248 728.243C651.211 728.856 652.228 729.378 653.286 729.803C654.317 730.074 655.327 730.419 656.307 730.838Z" fill="#263238"/>
<path d="M655.848 731.248C655.33 730.237 655.151 729.085 655.339 727.964C655.409 726.742 655.692 725.542 656.176 724.418C656.456 723.752 656.809 723.118 657.227 722.529C657.447 722.114 657.772 721.764 658.17 721.513C658.567 721.263 659.024 721.121 659.493 721.101C659.783 721.14 660.056 721.262 660.28 721.451C660.504 721.64 660.67 721.889 660.757 722.168C660.881 722.567 660.947 722.982 660.954 723.4C660.998 724.141 660.92 724.884 660.725 725.6C660.419 726.826 659.809 727.956 658.951 728.884C657.49 730.444 656.11 730.674 656.11 730.526C656.11 730.378 657.194 729.869 658.344 728.342C659.012 727.468 659.482 726.46 659.723 725.386C659.865 724.762 659.914 724.12 659.871 723.482C659.871 722.776 659.641 722.185 659.378 722.234C659.115 722.283 658.442 722.661 658.114 723.186C657.73 723.702 657.395 724.251 657.112 724.828C656.626 725.87 656.288 726.976 656.11 728.112C655.815 729.984 656.028 731.216 655.848 731.248Z" fill="#263238"/>
<path d="M679.443 433.11C679.443 433.11 694.911 462.781 694.911 486.787C694.911 491.861 663.516 743.711 663.516 743.711L619.182 739.967L640.725 507.28L633.746 459.99L679.443 433.11Z" fill="#263238"/>
<path d="M580.513 459.399C580.513 459.399 590.89 546.113 595.767 579.528C600.873 614.502 610.89 621.103 610.89 621.103L699.492 733.071L728.588 707.275L652.285 592.762C652.285 592.762 636.127 456.033 636.784 459.415C637.441 462.798 580.513 459.399 580.513 459.399Z" fill="#263238"/>
<path d="M612.466 622.548C612.669 622.936 612.917 623.3 613.205 623.632L615.504 626.587L623.927 637.441L651.463 673.565C662.186 687.653 671.972 700.379 679.213 709.459C682.826 714.007 685.781 717.669 687.883 720.132L690.297 722.989C690.567 723.329 690.864 723.647 691.183 723.941C690.973 723.558 690.72 723.2 690.428 722.874C689.853 722.119 689.098 721.134 688.146 719.918L679.788 708.983C672.678 699.689 662.974 686.98 652.251 672.859C641.529 658.738 631.677 646.127 624.436 637.096C620.824 632.548 617.868 628.886 615.766 626.407L613.353 623.566C613.086 623.202 612.79 622.861 612.466 622.548Z" fill="#455A64"/>
<path d="M642.58 510.17C642.559 510.3 642.559 510.433 642.58 510.564L642.679 511.713C642.777 512.808 642.925 514.285 643.122 516.146C643.549 520.054 644.14 525.604 644.896 532.419C646.538 546.211 648.672 565.144 651.07 586.063C651.349 588.362 651.611 590.644 651.874 592.779V592.893V592.976L679.296 634.124C682.76 639.28 685.568 643.434 687.506 646.373C688.458 647.769 689.23 648.853 689.772 649.657L690.379 650.511C690.527 650.692 690.593 650.79 690.609 650.774C690.569 650.663 690.514 650.558 690.445 650.462L689.903 649.575L687.768 646.209L679.788 633.812L652.58 592.499V592.68C652.334 590.529 652.055 588.247 651.792 585.948C649.28 565.045 647.014 546.113 645.372 532.337C644.502 525.522 643.812 519.989 643.319 516.081C643.073 514.225 642.876 512.797 642.728 511.68C642.646 511.22 642.597 510.843 642.548 510.531C642.498 510.219 642.597 510.153 642.58 510.17Z" fill="#455A64"/>
<g opacity="0.3">
<path d="M584.552 492.239C584.552 492.239 619.034 501.319 642.613 497.542C675.962 492.239 694.205 476.985 694.205 476.985L691.233 467.461L583.124 481.106L584.552 492.239Z" fill="black"/>
</g>
<path d="M638.738 295.232L665.01 302.785C665.01 302.785 680.527 413.259 684.369 429.383C689.197 449.596 694.632 465.507 694.221 471.188C694.221 471.188 682.251 487.067 646.965 491.221C611.678 495.375 577.984 485.507 577.984 485.507L575.094 419.219C575.094 419.219 558.806 359.877 558.461 349.976C557.574 325.642 563.485 311.471 563.485 311.471L598.624 295.724C608.41 306.66 633.517 310.338 638.738 295.232Z" fill="#38289D"/>
<path d="M687.456 323.047C685.312 318.306 682.212 314.058 678.349 310.571C674.487 307.085 669.945 304.434 665.01 302.785L667.259 358.317L681.775 376.461L667.259 386.313L691.643 417.955C691.643 417.955 715.009 406.986 716.043 397.134C717.078 387.282 691.282 331.684 687.456 323.047Z" fill="#38289D"/>
<path d="M620.545 384.228L614.601 404.868C635.109 429.186 691.61 417.905 691.61 417.905L669.131 386.149C657.473 390.008 620.545 384.228 620.545 384.228Z" fill="#38289D"/>
<path d="M615.537 381.289C615.537 381.289 604.995 360.517 603.862 360.271C602.729 360.025 586.145 354.196 586.145 354.196C585.644 355.541 585.644 357.021 586.145 358.366L580.201 359.122C580.201 359.122 581.087 362.8 583.107 363.309L580.956 365.197C582.033 366.632 583.419 367.805 585.012 368.629C585.622 368.93 586.293 369.087 586.974 369.087C587.654 369.087 588.326 368.93 588.936 368.629C588.936 368.629 588.164 370.008 591.58 372.159C594.995 374.31 601.891 384.294 601.891 384.294L615.537 381.289Z" fill="#FFBF9D"/>
<path d="M586.67 358.432C590.17 360.128 593.8 361.545 597.524 362.668C599.034 363.21 600.545 363.621 601.727 364.179C602.773 364.699 603.638 365.523 604.206 366.544C605.192 368.333 605.569 369.631 605.717 369.565C605.647 368.413 605.322 367.291 604.765 366.281C604.212 365.077 603.277 364.09 602.105 363.473C600.709 362.843 599.278 362.295 597.819 361.831C594.194 360.416 590.467 359.28 586.67 358.432Z" fill="#FF9A6C"/>
<path d="M582.812 363.309C583.728 363.864 584.743 364.237 585.8 364.409C587.705 364.918 590.381 365.345 593.222 366.051C595.644 366.657 597.924 367.728 599.938 369.204C601.448 370.386 602.121 371.404 602.253 371.322C601.884 370.29 601.222 369.389 600.348 368.728C598.367 367.019 596.009 365.804 593.468 365.181C590.545 364.393 587.852 364.064 585.931 363.72C584.906 363.486 583.862 363.349 582.812 363.309Z" fill="#FF9A6C"/>
<path d="M598 372.061C596.926 370.841 595.559 369.914 594.028 369.368C592.497 368.822 590.852 368.675 589.248 368.941C589.248 369.204 591.333 369.352 593.731 370.222C596.128 371.092 597.836 372.274 598 372.061Z" fill="#FF9A6C"/>
<path d="M573.156 311.75C580.66 313.589 582.877 322.407 588.066 340.042C593.254 357.677 598.952 375.837 598.952 375.837L601.891 384.294L667.243 368.514L680.461 389.45C680.461 389.45 637.966 423.209 607.409 424.555C592.532 423.176 582.779 417.593 570.71 397.528C563.846 386.198 559.347 375.69 557.311 365.46C554.47 351.191 549.709 337.234 553.715 323.737C556.851 313.129 562.434 309.123 573.156 311.75Z" fill="#38289D"/>
<path d="M669.082 353.523C668.907 350.55 668.44 347.602 667.686 344.722C667.223 341.777 666.458 338.889 665.404 336.101C665.588 339.072 666.056 342.02 666.8 344.902C667.269 347.845 668.033 350.733 669.082 353.523Z" fill="#263238"/>
<g opacity="0.3">
<path d="M622.925 421.715C626.735 420.142 630.704 418.991 634.764 418.283C639.115 417.626 642.777 418.923 647.128 419.597C660.117 421.633 669.804 420.089 682.054 419.597L682.727 423.357C677.341 427.56 670.56 428.907 663.713 428.775C657.522 428.661 651.431 426.641 645.224 426.821C640.346 427.225 635.53 428.189 630.873 429.695C623.025 432.058 614.778 432.79 606.637 431.846C586.325 428.792 578.493 412.815 575.11 405.377C576.782 408.079 578.659 410.648 580.726 413.062C593.649 426.477 612.203 426.23 622.925 421.715Z" fill="black"/>
</g>
<path d="M682.727 389.63C682.632 389.733 682.528 389.826 682.415 389.909L681.463 390.648C680.609 391.305 679.345 392.29 677.686 393.407C674.402 395.755 669.476 399.039 663.352 402.832C656.128 407.308 648.662 411.381 640.988 415.032C638.82 416.05 636.603 417.117 634.255 418.02L630.725 419.465C629.526 419.925 628.295 420.336 627.064 420.763C621.969 422.582 616.704 423.886 611.35 424.654C608.622 424.936 605.878 425.007 603.14 424.868C600.464 424.598 597.835 423.974 595.324 423.012C590.616 421.131 586.326 418.341 582.697 414.802C576.681 408.734 571.715 401.709 568.001 394.014C565.442 388.893 563.248 383.598 561.433 378.169C560.776 376.248 560.333 374.737 560.053 373.703C559.944 373.221 559.845 372.827 559.758 372.521C559.732 372.385 559.732 372.246 559.758 372.11C559.826 372.234 559.875 372.367 559.906 372.504L560.283 373.654C560.628 374.672 561.121 376.149 561.81 378.054C563.737 383.43 566.014 388.673 568.625 393.752C572.379 401.33 577.343 408.245 583.321 414.227C586.882 417.689 591.089 420.417 595.701 422.257C598.142 423.197 600.7 423.799 603.304 424.047C605.998 424.188 608.699 424.116 611.382 423.833C616.679 423.071 621.887 421.79 626.932 420.007L630.561 418.726L634.075 417.298C636.406 416.395 638.623 415.36 640.791 414.359C648.41 410.722 655.836 406.694 663.04 402.29C669.23 398.563 674.14 395.361 677.489 393.095L681.364 390.484L682.366 389.811C682.596 389.696 682.711 389.614 682.727 389.63Z" fill="#263238"/>
<path d="M586.325 332.193C586.359 332.557 586.436 332.915 586.555 333.26C586.769 334.016 587.048 335.017 587.376 336.265L590.562 347.365C593.353 356.823 597.13 369.811 601.497 384.409L601.612 384.786L602.039 384.671C603.566 384.294 605.323 383.916 607.129 383.538C623.237 380.09 637.769 376.724 648.179 373.966C653.401 372.619 657.604 371.388 660.494 370.517L663.778 369.45C664.166 369.343 664.545 369.206 664.911 369.04C664.508 369.079 664.111 369.168 663.729 369.302L660.445 370.205C657.522 370.977 653.302 372.11 648.064 373.391C637.605 376.002 623.057 379.269 607.014 382.717C605.225 383.112 603.55 383.456 601.809 383.9L602.351 384.162L591.12 347.201C589.691 342.587 588.526 338.86 587.688 336.183C587.294 334.952 586.966 333.966 586.719 333.211C586.628 332.858 586.496 332.516 586.325 332.193Z" fill="#263238"/>
<path d="M685.896 384.556L713.958 384.047C715.311 384.015 716.621 383.565 717.708 382.76C718.795 381.954 719.608 380.833 720.034 379.548L736.454 329.829C737.685 326.085 734.926 323.047 730.493 322.801L696.142 320.863C690.625 320.863 687.686 322.587 686.75 325.789L676.028 364.951C673.22 373.982 677.785 384.228 685.896 384.556Z" fill="#263238"/>
<path d="M665.946 365.608L670.428 356.101L678.721 353.769L676.077 362.521C678.967 363.933 682.793 364.836 685.289 363.457C687.784 362.078 697.587 352.34 699.443 353.276C701.298 354.212 702.94 356.445 701.249 358.58C699.558 360.715 690.379 367.348 692.267 369.302C694.155 371.256 704.746 362.734 707.85 363.309C710.953 363.884 712.858 365.756 711.134 367.086C709.41 368.416 705.14 372.668 704.385 374.54C704.566 376.872 705.682 380.189 704.664 380.763C702.17 381.943 699.555 382.846 696.865 383.456C696.306 383.456 692.366 385.098 688.737 386.494C684.657 388.146 680.114 388.251 675.962 386.79L673.86 386.051C672.254 385.481 670.864 384.426 669.884 383.032C668.905 381.637 668.383 379.972 668.392 378.268L668.474 371.256L665.946 365.608Z" fill="#FFBF9D"/>
</svg>
