<svg width="166" height="141" viewBox="0 0 166 141" fill="none" xmlns="http://www.w3.org/2000/svg">
<path d="M148.505 121.852H7.64172V140.703H148.505V121.852Z" fill="#78087A"/>
<path d="M148.505 124.177H7.64172V137.556H148.505V124.177Z" fill="#FAFAFA"/>
<path d="M151.814 108.835H0.098938V122.002H151.814V108.835Z" fill="#455A64"/>
<path d="M143.011 108.835H140.43V122.002H143.011V108.835Z" fill="white"/>
<path d="M137.57 108.835H134.989V122.002H137.57V108.835Z" fill="white"/>
<path d="M16.7367 108.835H14.1556V122.002H16.7367V108.835Z" fill="white"/>
<path d="M11.2954 108.835H8.71429V122.002H11.2954V108.835Z" fill="white"/>
<path d="M121.006 119.028C121.006 119.028 121.176 119.028 121.503 118.961C121.922 118.868 122.31 118.665 122.627 118.373C122.945 118.08 123.181 117.709 123.313 117.295C123.436 116.865 123.466 116.412 123.4 115.969C123.319 115.425 123.06 114.925 122.664 114.548C122.269 114.171 121.76 113.94 121.22 113.892L100.218 113.918L30.9285 113.954C30.5243 113.954 30.1269 114.06 29.7748 114.261C29.4227 114.462 29.1278 114.752 28.9186 115.103C28.7092 115.451 28.5934 115.849 28.5828 116.256C28.5532 116.665 28.6174 117.075 28.7703 117.454C28.9282 117.825 29.1768 118.15 29.4926 118.396C29.8084 118.643 30.1811 118.804 30.5754 118.864C30.9829 118.897 31.3919 118.907 31.8005 118.895H42.7703H61.1695H92.3217L113.319 118.935H119.031L113.319 118.957L92.3217 118.992L61.1695 119.019H31.7831C31.3471 119.019 30.9634 119.019 30.523 118.988C30.091 118.921 29.6828 118.744 29.3367 118.473C28.9905 118.203 28.7177 117.847 28.5436 117.441C28.3792 117.031 28.3091 116.588 28.3387 116.146C28.3501 115.698 28.4763 115.261 28.7049 114.877C28.9349 114.493 29.2587 114.175 29.6452 113.954C30.0316 113.734 30.4676 113.618 30.9111 113.618L100.2 113.653L121.207 113.697C121.768 113.744 122.298 113.984 122.708 114.375C123.118 114.767 123.385 115.289 123.465 115.854C123.527 116.298 123.493 116.751 123.365 117.18C123.248 117.537 123.054 117.863 122.798 118.135C122.446 118.506 121.989 118.756 121.49 118.851C121.367 118.876 121.241 118.891 121.115 118.895L121.006 119.028Z" fill="white"/>
<path d="M147.279 124.548C147.279 124.615 116.236 124.663 77.9555 124.663C39.6747 124.663 8.63147 124.615 8.63147 124.548C8.63147 124.482 39.666 124.433 77.9555 124.433C116.245 124.433 147.279 124.486 147.279 124.548Z" fill="#263238"/>
<path d="M147.279 128.544C147.279 128.606 116.236 128.659 77.9555 128.659C39.6747 128.659 8.63147 128.606 8.63147 128.544C8.63147 128.482 39.666 128.429 77.9555 128.429C116.245 128.429 147.279 128.478 147.279 128.544Z" fill="#263238"/>
<path d="M147.279 132.535C147.279 132.602 116.236 132.65 77.9555 132.65C39.6747 132.65 8.63147 132.602 8.63147 132.535C8.63147 132.469 39.666 132.42 77.9555 132.42C116.245 132.42 147.279 132.473 147.279 132.535Z" fill="#263238"/>
<path d="M147.279 136.531C147.279 136.593 116.236 136.646 77.9555 136.646C39.6747 136.646 8.63147 136.593 8.63147 136.531C8.63147 136.469 39.666 136.416 77.9555 136.416C116.245 136.416 147.279 136.469 147.279 136.531Z" fill="#263238"/>
<path d="M83.0087 114.992L90.2681 112.548L86.2089 100.808L78.4351 104.017L83.0087 114.992Z" fill="#FFBF9D"/>
<path d="M79.416 104.031L68.1759 109.043L63.8159 109.215C62.1591 109.282 62.5079 110.63 62.5864 112.309L63.3799 132.805C63.3799 132.805 65.4466 133.689 66.0221 132.155C66.5976 130.621 72.3921 118.895 72.3921 118.895L83.0305 114.961L79.416 104.031Z" fill="#E0E0E0"/>
<path d="M79.4161 104.031C79.4161 104.031 79.4423 104.093 79.4815 104.212C79.5208 104.331 79.5905 104.53 79.6734 104.764C79.8434 105.264 80.0876 105.989 80.4058 106.917L83.1047 114.948V115.019L83.0393 115.041L72.4314 118.988L72.4794 118.944C71.3152 121.331 70.0639 123.885 68.7559 126.559C68.1063 127.885 67.4479 129.278 66.7896 130.683C66.6239 131.037 66.4626 131.39 66.3056 131.748C66.2271 131.93 66.1661 132.098 66.0745 132.288C66.0361 132.387 65.9832 132.479 65.9176 132.562L65.8216 132.69L65.7039 132.796C65.371 133.06 64.9525 133.188 64.5311 133.154C64.1227 133.135 63.7203 133.047 63.3408 132.893L63.2841 132.871V132.8C63.2841 132.734 63.2841 132.663 63.2841 132.588C63.0705 127.019 62.8699 121.706 62.6868 116.866C62.6403 115.655 62.5967 114.477 62.556 113.33C62.5298 112.756 62.5168 112.19 62.4775 111.637C62.4099 111.081 62.4275 110.518 62.5298 109.967C62.5665 109.826 62.6311 109.695 62.7196 109.581C62.808 109.467 62.9186 109.373 63.0443 109.304C63.294 109.189 63.5638 109.126 63.8378 109.118L65.3464 109.065L68.1978 108.959H68.176L76.4339 105.321L78.64 104.358L79.2199 104.11L79.4118 104.031L79.2112 104.132C79.0717 104.194 78.8755 104.283 78.627 104.402L76.3903 105.419L68.2109 109.109H68.176L65.329 109.229L63.816 109.29C63.5691 109.294 63.3256 109.35 63.101 109.454C62.9933 109.512 62.8989 109.593 62.8238 109.69C62.7487 109.787 62.6946 109.9 62.665 110.02C62.5706 110.549 62.5574 111.091 62.6258 111.624C62.6694 112.181 62.6824 112.751 62.7086 113.321C62.7522 114.471 62.7987 115.649 62.8481 116.857C63.0356 121.719 63.2449 127.023 63.4629 132.584C63.4629 132.655 63.4629 132.725 63.4629 132.792L63.4018 132.703C63.7584 132.845 64.1354 132.927 64.518 132.946C64.8871 132.977 65.2541 132.867 65.547 132.637C65.8007 132.358 65.9885 132.024 66.0963 131.66C66.2533 131.302 66.4146 130.948 66.5803 130.595C67.2386 129.185 67.8883 127.815 68.551 126.471C69.859 123.797 71.1234 121.242 72.2919 118.86V118.824H72.3268L83 114.904L82.9564 114.997L80.3404 106.983C80.0352 106.042 79.7998 105.308 79.6385 104.804C79.56 104.557 79.499 104.362 79.4597 104.234C79.4205 104.106 79.4161 104.031 79.4161 104.031Z" fill="#263238"/>
<path d="M80.0352 102.784L77.3146 104.199C77.1132 104.303 76.9571 104.479 76.8766 104.693C76.796 104.907 76.7967 105.143 76.8786 105.357L80.7285 115.386C80.8109 115.599 80.9682 115.774 81.1703 115.877C81.3723 115.98 81.6048 116.003 81.8228 115.943L84.6873 115.143C84.81 115.108 84.9243 115.048 85.0227 114.966C85.1212 114.884 85.2017 114.782 85.2591 114.667C85.3166 114.552 85.3497 114.426 85.3563 114.297C85.363 114.168 85.343 114.039 85.2977 113.918L81.304 103.279C81.258 103.158 81.1875 103.048 81.0969 102.956C81.0063 102.864 80.8977 102.793 80.7781 102.746C80.6586 102.699 80.5306 102.679 80.4027 102.685C80.2747 102.692 80.1495 102.726 80.0352 102.784Z" fill="#E0E0E0"/>
<path d="M80.8548 115.779C80.556 115.311 80.2964 114.819 80.0788 114.307C79.6428 113.383 79.0542 112.097 78.4874 110.621C77.9206 109.145 77.4846 107.801 77.2055 106.811C77.0704 106.316 76.9657 105.927 76.9047 105.631C76.8575 105.488 76.8325 105.339 76.8306 105.189C77.0448 105.701 77.2269 106.227 77.3756 106.762C77.6938 107.735 78.156 109.074 78.7184 110.532C79.2809 111.991 79.839 113.295 80.2401 114.241C80.4807 114.738 80.6861 115.252 80.8548 115.779Z" fill="#263238"/>
<path d="M77.5718 106.612C78.1149 105.992 78.8112 105.53 79.5891 105.274C80.367 105.017 81.1982 104.976 81.9972 105.153C81.9972 105.233 80.9072 105.096 79.6646 105.516C78.9296 105.803 78.2278 106.17 77.5718 106.612Z" fill="#263238"/>
<path d="M78.5266 110.466C79.2405 109.985 80.0109 109.596 80.82 109.308C81.599 108.944 82.4189 108.676 83.2616 108.513C83.2877 108.583 82.2195 109.003 80.9159 109.542C80.1416 109.906 79.3433 110.215 78.5266 110.466Z" fill="#263238"/>
<path d="M80.4712 114.316C81.2676 114.149 82.0348 113.861 82.7471 113.463C83.9025 112.756 84.4562 111.744 84.5216 111.792C84.4618 112.037 84.3452 112.265 84.1816 112.455C83.47 113.447 82.4016 114.114 81.208 114.312C80.9663 114.373 80.7136 114.375 80.4712 114.316Z" fill="#263238"/>
<path d="M62.7695 113.79C62.7695 113.746 63.1488 113.688 63.7287 113.467C64.4836 113.187 65.1678 112.741 65.7325 112.161C66.2971 111.581 66.728 110.881 66.9944 110.113C67.208 109.52 67.256 109.127 67.2996 109.136C67.3294 109.485 67.2832 109.837 67.1644 110.166C66.9338 110.986 66.5034 111.733 65.9129 112.341C65.3225 112.948 64.5908 113.394 63.7854 113.64C63.4611 113.762 63.1148 113.813 62.7695 113.79Z" fill="#263238"/>
<path d="M63.1489 126.754C63.3724 126.623 63.6234 126.547 63.8814 126.533C64.5052 126.455 65.1379 126.561 65.7039 126.838C66.26 127.119 66.7516 127.515 67.147 128C67.3333 128.184 67.4815 128.403 67.583 128.646C67.5525 128.646 67.3607 128.451 67.0337 128.124C66.6178 127.698 66.1381 127.342 65.6123 127.068C65.0813 126.81 64.4958 126.688 63.9076 126.714C63.6565 126.752 63.4025 126.765 63.1489 126.754Z" fill="#263238"/>
<path d="M60.9863 87.575C60.9863 87.575 45.8876 84.9805 42.4956 85.3341C39.1035 85.6877 32.424 88.5297 32.424 94.6382C32.424 100.747 35.9512 105.476 40.708 106.727C45.4647 107.978 72.1697 113.467 82.6381 114.378C91.4976 115.147 96.5247 113.357 95.6527 111.863C95.6527 111.863 104.499 108.384 105.445 107.885C106.186 107.509 116.755 102.669 121.743 98.7046C124.014 96.8968 130.86 89.8646 125.314 85.0026C119.768 80.1406 113.415 80.7638 107.276 83.4202C106.247 83.8622 100.117 85.8866 96.6947 87.9242L91.5848 81.2942C91.4104 81.4003 80.9987 81.524 71.7381 81.4091C68.7471 81.3738 63.5369 81.2942 63.5369 81.2942L60.9863 87.575Z" fill="#263238"/>
<path d="M83.9853 104.566C83.8284 103.368 83.7499 102.926 84.1205 102.196C84.5361 101.491 85.072 100.865 85.7032 100.349C86.1087 99.982 86.5752 99.5842 87.1202 99.6328C87.8047 99.6947 88.2189 100.406 88.5241 101.03C89.6403 103.322 90.8494 105.564 92.1516 107.757C92.8972 109.016 93.7038 110.289 94.881 111.147C95.317 111.461 95.8489 111.845 95.753 112.38C95.6919 112.8 95.2646 113.048 94.881 113.22C94.1571 113.54 93.411 113.806 92.6486 114.016C91.9186 114.273 91.1327 114.322 90.3771 114.157C89.7046 113.908 89.1048 113.492 88.6331 112.946C86.2452 110.606 84.6023 107.595 83.9156 104.3" fill="#263238"/>
<path d="M111.083 85.0512C111.083 85.0512 110.987 85.0291 110.799 85.0512C110.529 85.0727 110.259 85.1096 109.993 85.1617C109.295 85.2943 108.292 85.5286 107.054 85.838C106.444 85.9927 105.746 86.1651 105.035 86.3153C104.342 86.5452 103.727 87.1065 103.073 87.6413C101.765 88.6977 100.305 89.8514 98.7963 91.1066C95.7835 93.5907 93.1283 95.92 91.2447 97.6615C90.2986 98.5455 89.5531 99.2483 89.0342 99.7433L88.4413 100.313C88.3734 100.382 88.3006 100.446 88.2233 100.504C88.2802 100.425 88.3428 100.351 88.4107 100.283L88.9775 99.6858C89.4789 99.1687 90.2114 98.435 91.1575 97.551C93.0105 95.783 95.6614 93.4271 98.6785 90.9431C100.187 89.7011 101.639 88.5342 102.969 87.4911C103.568 86.9393 104.253 86.4913 104.996 86.1651C105.75 86.0104 106.409 85.8601 107.037 85.7231C108.275 85.4313 109.286 85.2192 109.993 85.1131C110.264 85.0676 110.538 85.044 110.812 85.0424C110.886 85.036 110.96 85.0435 111.03 85.0645L111.083 85.0512Z" fill="#455A64"/>
<path d="M72.9371 101.175C72.8446 101.137 72.7568 101.088 72.6755 101.03L71.9517 100.588L69.3357 98.8725L65.4379 96.3134C63.8769 95.2126 62.2423 94.2231 60.546 93.352C59.6569 92.9407 58.7294 92.6208 57.7774 92.3972C57.3152 92.2805 56.8738 92.0911 56.4694 91.8359C56.0997 91.5586 55.7859 91.212 55.5451 90.8149C55.0798 90.1348 54.4168 89.6187 53.6485 89.3386C52.9788 89.0889 52.2766 88.9399 51.5644 88.8966C50.2564 88.8082 49.1751 88.8524 48.4339 88.7773C48.0677 88.7463 47.7799 88.7065 47.5881 88.6712C47.4904 88.6558 47.3941 88.6321 47.3003 88.6005C47.3983 88.6004 47.496 88.6093 47.5924 88.627C47.7886 88.6491 48.072 88.68 48.4426 88.6977C49.1795 88.7463 50.2433 88.6756 51.5731 88.7463C52.3029 88.7857 53.0229 88.9346 53.7095 89.1883C54.0937 89.3318 54.4573 89.5265 54.7908 89.7674C55.1418 90.0305 55.4482 90.35 55.6977 90.7132C55.9251 91.0891 56.221 91.4176 56.5697 91.6812C56.9573 91.9253 57.3814 92.1044 57.8253 92.2116C58.7893 92.4368 59.7285 92.7596 60.6288 93.1752C62.3262 94.0434 63.9596 95.0346 65.5164 96.141L69.3881 98.7399L72.0041 100.508L72.706 100.999C72.7873 101.052 72.8645 101.111 72.9371 101.175Z" fill="#455A64"/>
<path d="M76.6824 115.143L69.6846 112.946L73.347 101.617L80.8549 104.543L76.6824 115.143Z" fill="#FFBF9D"/>
<path d="M79.9131 104.574L90.7695 109.149L94.2575 109.211C94.7814 109.223 95.2794 109.444 95.6429 109.826C96.0064 110.209 96.2059 110.722 96.1977 111.253L95.8314 131.806C95.8314 131.806 93.4116 132.12 92.8318 130.657C92.2519 129.194 86.924 118.683 86.924 118.683L76.6605 115.125L79.9131 104.574Z" fill="#E0E0E0"/>
<path d="M79.9131 104.574C79.9131 104.574 79.9131 104.641 79.8608 104.769L79.6994 105.317C79.5556 105.808 79.3419 106.51 79.0716 107.421L76.7259 115.147L76.6823 115.054L86.9545 118.59H86.9894V118.626C88.123 120.875 89.3307 123.28 90.5951 125.799C91.2186 127.063 91.8595 128.354 92.4917 129.684C92.6486 130.012 92.7969 130.365 92.9495 130.692C93.1031 131.007 93.3586 131.258 93.6733 131.404C94.3447 131.689 95.0787 131.79 95.8009 131.696L95.7094 131.802V131.678C95.8096 126.396 95.9056 121.362 95.9928 116.774C96.0146 115.629 96.0364 114.506 96.0582 113.419C96.0582 112.875 96.08 112.34 96.0887 111.81C96.0887 111.549 96.0887 111.275 96.0887 111.032C96.056 110.667 95.9213 110.32 95.7004 110.03C95.4795 109.74 95.1816 109.521 94.8417 109.397C94.3912 109.285 93.9271 109.24 93.464 109.264L90.7651 109.207L82.8604 105.834L80.6804 104.901L80.1136 104.654L79.9174 104.566L80.1049 104.636L80.663 104.862L82.843 105.746L90.8218 109.065H90.7956L93.4988 109.109H94.2095C94.4602 109.109 94.7093 109.15 94.9464 109.233C95.4394 109.41 95.8477 109.77 96.0887 110.241C96.2124 110.481 96.288 110.744 96.311 111.014C96.311 111.293 96.311 111.54 96.311 111.81C96.311 112.336 96.311 112.875 96.2849 113.419C96.2645 114.506 96.2456 115.624 96.2282 116.774C96.1454 121.362 96.0538 126.396 95.9623 131.678C95.9623 131.718 95.9623 131.762 95.9623 131.797V131.894H95.875C95.1124 131.992 94.3377 131.884 93.6297 131.581C93.2738 131.411 92.9849 131.124 92.81 130.767C92.653 130.423 92.5091 130.095 92.3522 129.76C91.7243 128.434 91.0878 127.143 90.4599 125.879L86.8716 118.701L86.924 118.745L76.6649 115.169L76.5995 115.143L76.6213 115.076L79.0542 107.328L79.7125 105.255C79.7866 105.025 79.8433 104.848 79.8826 104.72C79.9218 104.592 79.9131 104.574 79.9131 104.574Z" fill="#263238"/>
<path d="M79.2112 102.855L82.2632 104.367C82.4679 104.468 82.6284 104.642 82.7138 104.856C82.7991 105.07 82.8033 105.308 82.7253 105.525L79.076 115.722C78.9969 115.939 78.8415 116.119 78.6396 116.227C78.4377 116.336 78.2035 116.365 77.9817 116.309L75.0735 115.558C74.9492 115.527 74.8326 115.469 74.7315 115.39C74.6304 115.31 74.547 115.209 74.4865 115.095C74.4261 114.98 74.3901 114.854 74.3808 114.724C74.3715 114.595 74.3892 114.465 74.4326 114.343L78.3566 103.217C78.3861 103.134 78.4323 103.058 78.4923 102.994C78.5523 102.93 78.6248 102.88 78.7052 102.845C78.7856 102.811 78.8721 102.795 78.9592 102.796C79.0463 102.798 79.1321 102.818 79.2112 102.855Z" fill="#E0E0E0"/>
<path d="M79.2112 102.855C79.1029 102.82 78.9888 102.806 78.8754 102.815C78.742 102.831 78.6177 102.892 78.5223 102.988C78.4049 103.134 78.3228 103.307 78.2825 103.491C77.9947 104.336 77.5849 105.525 77.0835 106.988L75.2828 112.168L74.7596 113.684C74.6724 113.936 74.5852 114.192 74.4936 114.449C74.4611 114.569 74.4552 114.695 74.4763 114.818C74.4974 114.941 74.545 115.058 74.6157 115.16C74.6878 115.261 74.7817 115.345 74.8904 115.403C75.0095 115.461 75.1356 115.503 75.2654 115.527L76.0938 115.739L77.7811 116.181C77.9119 116.227 78.0484 116.254 78.1866 116.261C78.3168 116.263 78.4457 116.233 78.5615 116.172C78.6776 116.114 78.7778 116.027 78.8536 115.92C78.9251 115.806 78.9808 115.683 79.0193 115.554C79.2155 115.006 79.4117 114.471 79.6036 113.94C79.9872 112.888 80.3535 111.872 80.7066 110.899C81.413 108.968 82.0495 107.222 82.5902 105.75C82.6667 105.586 82.7111 105.409 82.721 105.228C82.7205 105.059 82.6721 104.893 82.5814 104.751C82.407 104.468 82.067 104.38 81.801 104.23L80.384 103.487L79.512 103.045C79.4075 102.996 79.3069 102.938 79.2112 102.873C79.3224 102.907 79.4304 102.951 79.5338 103.005L80.432 103.447L81.8533 104.128L82.2893 104.336C82.4544 104.41 82.5962 104.53 82.6992 104.68C82.8066 104.843 82.8657 105.033 82.8692 105.228C82.8627 105.429 82.8167 105.626 82.734 105.807C82.2108 107.284 81.5874 109.03 80.8941 110.97C80.5453 111.942 80.1834 112.963 79.8041 114.02C79.6123 114.546 79.4204 115.085 79.2242 115.629C79.1798 115.778 79.1136 115.919 79.028 116.049C78.9344 116.182 78.8102 116.289 78.6662 116.362C78.5201 116.437 78.3589 116.477 78.1953 116.477C78.1145 116.476 78.034 116.466 77.9555 116.446L77.7375 116.389L76.0502 115.947L75.2261 115.735C75.0752 115.708 74.9286 115.66 74.7901 115.593C74.6551 115.516 74.5378 115.411 74.4457 115.284C74.3562 115.158 74.2964 115.013 74.2707 114.859C74.245 114.706 74.2542 114.549 74.2974 114.4C74.389 114.126 74.4806 113.878 74.5678 113.622C74.7509 113.114 74.9253 112.614 75.0997 112.128L76.944 106.966L78.204 103.491C78.2499 103.297 78.3428 103.118 78.4743 102.97C78.5829 102.87 78.7208 102.81 78.8667 102.797C78.9557 102.792 79.0448 102.806 79.1283 102.837C79.1894 102.833 79.2112 102.851 79.2112 102.855Z" fill="#263238"/>
<path d="M82.0625 106.798C81.5015 106.184 80.7895 105.732 79.9997 105.489C79.2098 105.246 78.3704 105.22 77.5674 105.414C77.5674 105.494 78.6661 105.335 79.9261 105.732C80.675 106.006 81.3916 106.363 82.0625 106.798Z" fill="#263238"/>
<path d="M80.8854 110.647C79.4765 109.816 77.9503 109.207 76.3597 108.844C77.0854 109.214 77.8357 109.531 78.6051 109.794C79.345 110.131 80.1069 110.416 80.8854 110.647Z" fill="#263238"/>
<path d="M79.294 114.643C79.294 114.564 78.1517 114.537 76.9832 113.825C75.8147 113.114 75.2392 112.128 75.1564 112.177C75.2205 112.423 75.3416 112.65 75.5095 112.84C75.8779 113.326 76.3354 113.736 76.8568 114.046C77.3765 114.357 77.9512 114.561 78.5485 114.648C78.794 114.704 79.0491 114.702 79.294 114.643Z" fill="#263238"/>
<path d="M96.0494 113.587C96.0494 113.547 95.6832 113.498 95.1251 113.299C94.3952 113.047 93.7297 112.634 93.1769 112.089C92.6241 111.544 92.198 110.881 91.9292 110.148C91.7156 109.587 91.6589 109.211 91.6197 109.22C91.5966 109.555 91.6473 109.892 91.7679 110.205C92.0046 110.986 92.4314 111.694 93.009 112.263C93.5866 112.832 94.2964 113.245 95.0728 113.463C95.3856 113.576 95.7189 113.618 96.0494 113.587Z" fill="#263238"/>
<path d="M95.9361 126.016C95.7202 125.892 95.4777 125.824 95.2298 125.817C94.6295 125.753 94.0239 125.867 93.4858 126.144C92.9588 126.426 92.4955 126.816 92.1254 127.289C91.842 127.647 91.7112 127.894 91.7374 127.912C91.7636 127.93 91.9467 127.722 92.2519 127.404C92.6406 126.986 93.0924 126.634 93.5904 126.361C94.0949 126.105 94.6529 125.978 95.2167 125.989C95.4553 126.019 95.696 126.028 95.9361 126.016Z" fill="#263238"/>
<path d="M72.4618 99.3764C72.4095 99.3985 72.1348 98.7355 71.568 97.7366C70.0853 95.1222 67.9675 92.9357 65.4161 91.385C64.4394 90.7883 63.7942 90.501 63.816 90.448C63.9813 90.472 64.1417 90.5227 64.2912 90.5983C64.7151 90.7675 65.1273 90.9654 65.5251 91.1906C66.8501 91.9219 68.0608 92.8484 69.1177 93.9398C70.1711 95.0313 71.0613 96.2732 71.7599 97.6261C71.9744 98.0339 72.1609 98.4563 72.318 98.8902C72.3911 99.0435 72.4397 99.2076 72.4618 99.3764Z" fill="#455A64"/>
<path d="M92.4742 92.1895C92.1156 92.5908 91.7295 92.966 91.3188 93.3121C90.5994 93.9928 89.6315 94.9608 88.6374 96.1056C87.6433 97.2504 86.828 98.3465 86.2525 99.1598C85.9691 99.6185 85.6513 100.054 85.302 100.464C85.499 99.9577 85.7568 99.4782 86.0694 99.036C87.4675 96.8216 89.1889 94.835 91.1749 93.1442C91.5661 92.7711 92.0027 92.4502 92.4742 92.1895Z" fill="#455A64"/>
<path d="M100.257 72.0077L101.002 57.9344L90.4468 60.1047L92.5352 79.1504L98.8223 88.4501L105.467 85.7539L100.257 72.0077Z" fill="#FFBF9D"/>
<path d="M99.132 71.252C98.3986 71.2961 97.6697 71.3981 96.952 71.557C96.2562 71.7917 95.5786 72.0783 94.9246 72.4144C95.4689 71.8773 96.1496 71.504 96.8909 71.336C97.6152 71.0945 98.3921 71.0653 99.132 71.252Z" fill="#FF9A6C"/>
<path d="M112.918 78.1914L105.851 75.7383C105.739 75.6986 105.62 75.6859 105.503 75.7013C105.385 75.7166 105.273 75.7596 105.175 75.8267L90.7869 85.5507C90.6646 85.6329 90.5681 85.7489 90.5088 85.8849C90.4495 86.021 90.4299 86.1715 90.4524 86.3185C90.4749 86.4655 90.5385 86.6028 90.6357 86.7143C90.7328 86.8258 90.8595 86.9067 91.0006 86.9474L98.4387 89.1574C98.5461 89.1893 98.6591 89.1971 98.7698 89.1803C98.8804 89.1635 98.9862 89.1225 99.0797 89.0602L113.084 79.5793C113.203 79.4991 113.298 79.3869 113.358 79.2552C113.418 79.1235 113.44 78.9775 113.423 78.8336C113.406 78.6896 113.35 78.5533 113.261 78.4399C113.171 78.3265 113.053 78.2405 112.918 78.1914Z" fill="#455A64"/>
<path d="M105.423 80.7727C105.423 80.7727 105.72 80.7197 106.614 81.4932C107.508 82.2667 107.922 82.8191 108.105 83.6501C108.203 84.4107 108.065 85.1834 107.708 85.8601C107.361 86.3173 106.985 86.7514 106.583 87.1596C106.583 87.1596 106.605 88.4326 105.711 88.8922L104.791 89.3342C104.656 89.6188 104.439 89.8555 104.17 90.0132C103.9 90.1709 103.589 90.2424 103.278 90.2182L102.228 90.3773C102.228 90.3773 101.325 90.9475 100.92 90.563C100.514 90.1784 96.6119 87.3143 96.2064 86.3772C95.801 85.4402 96.0625 85.312 96.0625 85.312C96.0625 85.312 94.6935 84.8921 95.4085 83.9374C96.1236 82.9827 97.3051 83.8181 98.3646 84.4236C99.4241 85.0291 102.585 86.3463 102.585 86.3463C102.585 86.3463 100.135 82.3374 100.296 81.7937C100.457 81.2501 101.478 80.5429 102.367 81.6037C103.257 82.6645 104.983 85.5109 105.275 85.3297L106.226 84.2291C106.226 84.2291 104.678 81.9396 104.669 81.281C104.66 80.6224 105.423 80.7727 105.423 80.7727Z" fill="#FFBF9D"/>
<path d="M101.268 88.9319C100.963 88.8465 100.669 88.7202 100.396 88.5562C99.7224 88.2023 99.0688 87.8097 98.4388 87.3805C97.8079 86.9543 97.2023 86.4908 96.625 85.9926C96.3731 85.798 96.146 85.5723 95.9492 85.3208C95.9972 85.2677 97.1003 86.2048 98.5652 87.1904C100.03 88.1761 101.312 88.8833 101.268 88.9319Z" fill="#78087A"/>
<path d="M60.594 42.1684L72.6232 37.9296L85.5288 37.3329L97.1134 41.5098L93.1763 58.5047L93.2242 57.9434L92.7882 72.1271L93.403 79.3715L91.9816 81.7185L62.7522 81.2986L62.4819 62.0805L60.594 42.1684Z" fill="#78087A"/>
<path d="M50.6227 62.9998C50.6227 62.9998 54.9347 49.7619 56.5523 46.7342C57.5281 44.9123 58.9126 43.3483 60.594 42.1683L62.4819 62.244L62.6476 66.3369L50.6227 62.9998Z" fill="#78087A"/>
<path d="M97.1134 41.5098C97.1134 41.5098 101.434 43.2778 102.568 48.1398C103.265 51.1321 105.785 63.9457 105.785 63.9457H91.7593L92.5354 51.0879L97.1134 41.5098Z" fill="#78087A"/>
<path d="M96.0799 45.0546C95.9576 45.4776 95.7986 45.8888 95.6047 46.2833C95.2864 47.0303 94.833 48.0513 94.2967 49.1784C93.2547 51.4238 92.326 53.2183 92.2083 53.1564C92.2083 53.1564 92.4263 52.7144 92.762 51.9719C93.1326 51.1674 93.586 50.1818 94.0918 49.0944C94.5975 48.0071 95.0902 46.9552 95.4477 46.2303C95.6235 45.8201 95.8351 45.4266 96.0799 45.0546Z" fill="#263238"/>
<path d="M61.7799 49.6603C61.8322 49.8761 61.8629 50.0968 61.8714 50.3189C61.915 50.7609 61.9717 51.3576 62.0284 52.1178C62.1505 53.6427 62.2813 55.7466 62.3772 58.076C62.4731 60.4053 62.5211 62.496 62.5298 64.043C62.5298 64.8076 62.5298 65.4264 62.5298 65.8507C62.5357 66.0723 62.524 66.294 62.4949 66.5137C62.4556 66.2951 62.4381 66.073 62.4426 65.8507C62.4426 65.3822 62.4033 64.7767 62.3772 64.0474C62.3205 62.4783 62.242 60.392 62.1592 58.0848C62.0763 55.7776 61.9543 53.6957 61.8801 52.1311C61.8453 51.3973 61.8147 50.8051 61.7929 50.3233C61.7704 50.103 61.766 49.8813 61.7799 49.6603Z" fill="#263238"/>
<path d="M91.9816 51.7775C92.051 51.974 92.1021 52.1768 92.1342 52.383C92.2214 52.7764 92.3347 53.351 92.4612 54.0582C92.8089 55.9077 93.0362 57.7785 93.1413 59.6583C93.2257 61.5377 93.2126 63.4203 93.1021 65.2982C93.0629 66.0187 93.0236 66.6243 92.9887 67.0044C92.9838 67.2143 92.9575 67.4231 92.9102 67.6276C92.8925 67.4188 92.8925 67.2088 92.9102 66.9999C92.9102 66.5579 92.932 65.9789 92.9538 65.2938C92.9887 63.8529 93.0323 61.8639 92.9233 59.6716C92.8141 57.7999 92.6104 55.9352 92.3129 54.0847C92.2083 53.4084 92.1254 52.8427 92.0557 52.4007C92.0102 52.196 91.9854 51.9872 91.9816 51.7775Z" fill="#263238"/>
<path d="M61.3831 10.614C60.8834 10.5996 60.3864 10.6922 59.9244 10.8857C59.4624 11.0791 59.0458 11.3691 58.7017 11.7367C57.5245 12.9964 58.1785 15.118 58.1785 15.118C58.1785 15.118 55.5625 16.0241 55.1265 17.9468C54.2937 19.3788 54.5989 23.4055 56.1467 23.9801C56.1584 24.6842 56.3149 25.3781 56.6061 26.0174C56.8974 26.6567 57.3171 27.2274 57.8384 27.6929C57.8428 28.5429 58.1073 29.3705 58.5954 30.0617C59.0835 30.7528 59.7711 31.2734 60.5634 31.5515C60.8346 32.2949 61.2202 32.99 61.7057 33.6112C63.1663 35.3527 65.6297 34.3847 65.6297 34.3847C65.6297 34.3847 67.6789 36.7936 68.6163 36.8467C75.1563 37.2047 81.5132 34.5836 80.8461 34.093C83.8981 36.6831 89.7667 34.4687 89.3612 33.3328C89.3612 33.3328 92.0382 33.4035 93.3898 32.3162C96.1846 30.062 95.4391 27.2509 95.4391 27.2509C95.9044 27.5563 96.4614 27.6849 97.0113 27.6137C97.5612 27.5425 98.0685 27.2761 98.4431 26.8619C99.2017 26.0619 98.8224 24.5723 98.8224 24.5723C99.0111 24.2877 99.1141 23.9535 99.1187 23.6105C99.1234 23.2675 99.0295 22.9306 98.8486 22.6408C99.8557 21.8452 100.008 20.8153 99.1189 19.5026C100.915 17.7567 98.2164 15.2594 98.2164 15.2594C98.3894 15.1432 98.5367 14.992 98.6491 14.8151C98.7614 14.6383 98.8364 14.4397 98.8691 14.232C98.9019 14.0243 98.8918 13.8119 98.8395 13.6084C98.7872 13.4048 98.6938 13.2145 98.5652 13.0494C99.6683 12.0947 98.3995 9.90678 97.013 9.45594C96.2675 5.47794 91.781 5.61054 91.781 5.61054C91.4695 4.9348 90.9146 4.40568 90.2301 4.13193C89.5457 3.85818 88.7839 3.8606 88.1012 4.13868C87.2728 2.98064 83.6845 2.29996 81.4173 4.13868C77.1619 -1.19626 72.0084 -0.524424 68.2196 2.19388C65.2243 4.342 65.1371 6.87908 64.6793 8.2758C63.9607 8.28037 63.2605 8.5065 62.6717 8.92414C62.083 9.34179 61.6335 9.93117 61.3831 10.614Z" fill="#263238"/>
<path d="M69.3168 28.2268C71.9896 27.0945 73.2508 23.98 72.1339 21.2704C71.0169 18.5609 67.9448 17.2823 65.272 18.4146C62.5992 19.5469 61.338 22.6614 62.4549 25.3709C63.5719 28.0805 66.644 29.3591 69.3168 28.2268Z" fill="#455A64"/>
<path d="M70.4606 23.3303C70.4344 23.3303 70.4606 23.043 70.3167 22.5568C70.1309 21.8706 69.7243 21.2669 69.1613 20.8419C68.809 20.605 68.412 20.4449 67.9955 20.3717C67.5789 20.2986 67.1519 20.3139 66.7416 20.4168C66.3312 20.5197 65.9464 20.7079 65.6115 20.9695C65.2767 21.2311 64.9991 21.5604 64.7963 21.9364C64.5936 22.3125 64.4701 22.7271 64.4337 23.1541C64.3974 23.581 64.4489 24.011 64.585 24.4167C64.7212 24.8225 64.939 25.1951 65.2246 25.511C65.5103 25.8269 65.8576 26.0792 66.2445 26.2519C66.6501 26.4017 67.082 26.4643 67.5128 26.4358C67.9436 26.4072 68.3638 26.2882 68.7468 26.0862C69.1297 25.8842 69.4671 25.6036 69.7373 25.2623C70.0076 24.9211 70.2049 24.5265 70.3167 24.1038C70.4475 23.6176 70.4344 23.3303 70.4606 23.3303C70.4719 23.3991 70.4719 23.4693 70.4606 23.5381C70.4613 23.7362 70.4379 23.9336 70.3908 24.1259C70.229 24.8508 69.8236 25.4961 69.2441 25.9514C68.8445 26.2677 68.377 26.4842 67.8795 26.5834C67.3054 26.6944 66.7125 26.6486 66.1616 26.4508C65.5496 26.2316 65.0175 25.8294 64.6356 25.2972C64.2194 24.7283 63.9946 24.0387 63.9946 23.3303C63.9946 22.6219 64.2194 21.9324 64.6356 21.3634C64.8922 21.0088 65.2163 20.7099 65.5889 20.4846C65.9614 20.2592 66.3747 20.1118 66.8044 20.0512C67.2341 19.9907 67.6714 20.0181 68.0905 20.1319C68.5095 20.2456 68.9018 20.4435 69.2441 20.7137C69.8225 21.1681 70.2277 21.8116 70.3908 22.5347C70.438 22.7285 70.4614 22.9274 70.4606 23.127C70.4718 23.1943 70.4718 23.263 70.4606 23.3303Z" fill="#263238"/>
<path d="M75.466 7.13549L76.1636 6.45923L83.7238 9.55323C84.2517 9.5829 84.7494 9.81238 85.1184 10.1963C85.4874 10.5801 85.7008 11.0905 85.7163 11.6262L85.6509 36.5904C85.7324 38.2042 85.2611 39.7969 84.3168 41.0988L83.2573 42.522C80.8331 45.7619 75.8453 45.4922 73.94 41.9253C73.8236 41.723 73.7342 41.5061 73.674 41.28C73.625 41.0954 73.5871 40.9079 73.5606 40.7186C73.3339 38.712 73.3208 36.9705 73.3208 36.9705C73.1857 34.7605 73.1421 33.8765 73.1421 33.8765C73.1421 33.8765 68.5118 33.3372 67.2604 27.3128C66.637 24.316 66.7547 20.1922 66.9334 16.139C67.1732 10.5212 71.0144 7.13107 75.466 7.13549Z" fill="#FFBF9D"/>
<path d="M77.0137 20.2452C77.0227 20.4485 77.109 20.6402 77.2545 20.7803C77.4 20.9204 77.5934 20.998 77.7941 20.9966C77.8922 20.999 77.9897 20.9815 78.0811 20.9454C78.1725 20.9092 78.2559 20.8551 78.3264 20.786C78.397 20.7169 78.4533 20.6343 78.4922 20.543C78.531 20.4517 78.5516 20.3535 78.5528 20.254C78.5448 20.0504 78.4588 19.858 78.3131 19.7177C78.1673 19.5773 77.9733 19.5002 77.7723 19.5027C77.6742 19.5003 77.5767 19.5177 77.4853 19.5539C77.3939 19.59 77.3106 19.6442 77.24 19.7133C77.1694 19.7824 77.1131 19.8649 77.0742 19.9563C77.0354 20.0476 77.0148 20.1458 77.0137 20.2452Z" fill="#263238"/>
<path d="M69.2006 20.2452C69.2096 20.4485 69.2959 20.6402 69.4414 20.7803C69.5869 20.9204 69.7803 20.998 69.981 20.9966C70.0791 20.999 70.1766 20.9815 70.268 20.9454C70.3594 20.9092 70.4428 20.8551 70.5133 20.786C70.5839 20.7169 70.6402 20.6343 70.6791 20.543C70.7179 20.4517 70.7385 20.3535 70.7396 20.254C70.7306 20.0508 70.6443 19.859 70.4988 19.7189C70.3533 19.5788 70.1599 19.5013 69.9592 19.5027C69.8611 19.5003 69.7636 19.5177 69.6722 19.5539C69.5808 19.59 69.4974 19.6442 69.4269 19.7133C69.3563 19.7824 69.3 19.8649 69.2611 19.9563C69.2223 20.0476 69.2017 20.1458 69.2006 20.2452Z" fill="#263238"/>
<path d="M67.74 17.7435C67.8403 17.8363 68.3984 17.3722 69.2268 17.3324C70.0552 17.2926 70.6787 17.6816 70.7659 17.5755C70.8531 17.4694 70.7005 17.3457 70.4258 17.1645C70.0549 16.9323 69.6227 16.8212 69.1876 16.8462C68.7588 16.8633 68.3466 17.0181 68.0103 17.2882C67.74 17.5092 67.6746 17.6993 67.74 17.7435Z" fill="#263238"/>
<path d="M76.1111 17.8274C76.2201 17.9158 76.7303 17.3854 77.5499 17.2661C78.3696 17.1467 79.0323 17.4605 79.1021 17.3456C79.1719 17.2307 79.0193 17.129 78.7271 16.9743C78.3346 16.7818 77.893 16.7169 77.4627 16.7887C77.0376 16.8531 76.6437 17.0527 76.3379 17.3589C76.1155 17.5931 76.0588 17.792 76.1111 17.8274Z" fill="#263238"/>
<path d="M73.2249 23.9271C72.7814 23.8143 72.3262 23.7549 71.8689 23.7503C71.6553 23.7503 71.4547 23.7061 71.4111 23.5646C71.3835 23.3448 71.4215 23.1215 71.5201 22.9237C71.6945 22.3933 71.8733 21.8408 72.0651 21.2618C72.8151 18.8971 73.3731 16.9567 73.2554 16.9258C73.1377 16.8948 72.475 18.791 71.7251 21.1557C71.5419 21.7348 71.3719 22.2917 71.2062 22.8221C71.0854 23.0879 71.0607 23.3883 71.1365 23.6707C71.1711 23.7447 71.2223 23.8096 71.2858 23.8602C71.3493 23.9108 71.4236 23.9458 71.5027 23.9624C71.6201 23.9881 71.7401 24 71.8602 23.9978C72.3162 24.0323 72.7747 24.0085 73.2249 23.9271Z" fill="#263238"/>
<path d="M73.142 33.8764C75.9654 33.7757 78.7061 32.8838 81.0597 31.2996C81.0597 31.2996 79.2503 35.6046 73.2117 35.3394L73.142 33.8764Z" fill="#FF9A6C"/>
<path d="M73.6739 25.9293C73.8211 25.7204 74.0186 25.5531 74.2475 25.4432C74.4764 25.3334 74.7292 25.2847 74.9819 25.3016C75.165 25.3097 75.3446 25.3549 75.5101 25.4346C75.6756 25.5144 75.8237 25.6269 75.9455 25.7657C76.0613 25.9005 76.1341 26.0676 76.1544 26.2452C76.1746 26.4227 76.1413 26.6023 76.0588 26.7602C75.9348 26.9186 75.7663 27.0351 75.5755 27.0943C75.3848 27.1535 75.1808 27.1526 74.9906 27.0917C74.5923 26.9734 74.2216 26.775 73.9006 26.5083C73.8048 26.4457 73.7207 26.3664 73.6521 26.274C73.6215 26.2276 73.6052 26.173 73.6052 26.1171C73.6052 26.0613 73.6215 26.0067 73.6521 25.9602" fill="#FF9A6C"/>
<path d="M75.6839 24.3999C75.5487 24.3999 75.5923 25.306 74.8555 25.9911C74.1186 26.6762 73.1594 26.6232 73.1594 26.7513C73.1594 26.8088 73.3818 26.9193 73.7873 26.9105C74.3121 26.8886 74.813 26.6823 75.2043 26.327C75.5769 25.9846 75.805 25.5096 75.8408 25.001C75.8583 24.5988 75.7449 24.3999 75.6839 24.3999Z" fill="#263238"/>
<path d="M75.3177 14.5611C75.4354 14.7732 76.2333 14.539 77.2143 14.508C78.1953 14.4771 79.0062 14.623 79.1021 14.3975C79.1457 14.2915 78.9801 14.1014 78.6313 13.9334C78.1729 13.7319 77.6754 13.6383 77.1762 13.6597C76.6771 13.6812 76.1892 13.8171 75.7493 14.0572C75.4179 14.2561 75.2697 14.4594 75.3177 14.5611Z" fill="#263238"/>
<path d="M67.8402 14.1412C67.9972 14.3224 68.5553 14.097 69.2398 14.0528C69.9243 14.0086 70.5129 14.1147 70.635 13.9113C70.6873 13.8097 70.587 13.624 70.3254 13.4693C69.9751 13.2667 69.5716 13.1787 69.17 13.2174C68.7687 13.2456 68.3861 13.4001 68.0757 13.6594C67.8402 13.8495 67.7705 14.0528 67.8402 14.1412Z" fill="#263238"/>
<path d="M84.5216 21.8806C84.4998 21.4386 84.9576 20.3336 85.3936 20.2452C86.5577 19.9976 88.6854 19.9844 88.8555 23.0121C89.0865 27.1536 84.9315 26.5481 84.9315 26.4155C84.9315 26.2829 84.5957 23.4408 84.5216 21.8806Z" fill="#FFBF9D"/>
<path d="M86.0956 24.7756C86.0956 24.7756 86.1654 24.8242 86.2918 24.8729C86.4629 24.9404 86.6527 24.9404 86.8237 24.8729C87.2597 24.6872 87.5693 23.9889 87.5475 23.2286C87.5395 22.8729 87.4515 22.5237 87.2903 22.2076C87.2454 22.0796 87.1702 21.9648 87.0714 21.8731C86.9726 21.7814 86.8531 21.7157 86.7235 21.6816C86.6411 21.665 86.5556 21.678 86.4816 21.7183C86.4076 21.7586 86.3498 21.8238 86.318 21.9026C86.27 22.022 86.318 22.1059 86.2787 22.1148C86.2395 22.1236 86.1872 22.0485 86.209 21.8761C86.2266 21.7717 86.2789 21.6766 86.3572 21.6065C86.4635 21.5143 86.6013 21.4682 86.7409 21.4783C86.911 21.502 87.0722 21.5698 87.2089 21.6751C87.3456 21.7804 87.4532 21.9196 87.5213 22.0794C87.7156 22.4279 87.8219 22.8196 87.8309 23.2198C87.8527 24.0552 87.4777 24.8596 86.8935 25.0673C86.7859 25.1051 86.6713 25.1179 86.5581 25.1049C86.4449 25.0919 86.3361 25.0534 86.2395 24.9922C86.1043 24.8773 86.0782 24.7845 86.0956 24.7756Z" fill="#FF9A6C"/>
<path d="M68.9477 23.348C68.8285 23.348 68.7108 23.348 68.5945 23.348C68.1415 23.33 67.6977 23.2128 67.2936 23.0045C66.8894 22.7962 66.5345 22.5018 66.2532 22.1414C65.0978 20.6121 65.512 18.2253 65.5338 18.1236V18.0175L65.6297 17.9689C65.682 17.9424 66.8636 17.3589 69.1482 17.6816C71.4329 18.0043 72.2002 19.0872 72.2002 19.1314L72.2351 19.1888V19.2551C72.2351 19.3479 72.1959 21.4651 70.9271 22.6187C70.3808 23.1048 69.6743 23.3651 68.9477 23.348ZM65.9436 18.3092C65.8782 18.791 65.6995 20.6651 66.602 21.8452C66.846 22.1561 67.1536 22.4096 67.5036 22.5881C67.8537 22.7667 68.2377 22.8661 68.6294 22.8795C68.993 22.9298 69.3631 22.901 69.7149 22.7951C70.0667 22.6891 70.3922 22.5085 70.6699 22.2651C71.6727 21.3414 71.8165 19.6706 71.8383 19.2993C71.6683 19.1004 70.9271 18.3446 69.109 18.0927C68.0523 17.9004 66.9652 17.9748 65.9436 18.3092Z" fill="#455A64"/>
<path d="M77.5194 23.5425C76.7648 23.5656 76.0301 23.2952 75.4659 22.7867C74.1579 21.58 74.1012 19.3877 74.1012 19.2949V19.2286L74.1361 19.1711C74.1666 19.1225 74.9165 18.0042 77.3145 17.6683C79.7125 17.3324 80.9028 17.9424 80.9508 17.9689L81.0554 18.0219V18.1413C81.0554 18.2473 81.3388 20.8198 80.0831 22.3845C79.8161 22.7157 79.4848 22.9878 79.1098 23.184C78.7348 23.3801 78.3241 23.4961 77.9031 23.5248C77.768 23.5381 77.6459 23.5425 77.5194 23.5425ZM74.5416 19.3656C74.5416 19.7457 74.7072 21.5005 75.758 22.4596C76.3444 22.9278 77.0847 23.1518 77.8283 23.0861C78.5719 23.0205 79.2628 22.67 79.7605 22.106C80.7546 20.8728 80.6848 18.844 80.6325 18.3181C79.5727 17.9787 78.4475 17.9059 77.3538 18.1059C75.479 18.3755 74.716 19.1579 74.5416 19.3656Z" fill="#455A64"/>
<path d="M74.28 19.4098C73.9816 19.1299 73.6058 18.9494 73.2031 18.8927C73.026 18.8696 72.8461 18.8992 72.6851 18.9776C72.5242 19.056 72.3891 19.18 72.2962 19.3347L71.9038 19.1446C72.0335 18.9068 72.2299 18.7134 72.4683 18.589C72.7066 18.4647 72.9761 18.415 73.2423 18.4462C73.7305 18.512 74.187 18.728 74.5503 19.065L74.28 19.4098Z" fill="#455A64"/>
<path d="M86.2874 8.54985C85.5811 7.40507 84.2948 6.78185 83.074 6.24261C80.4319 5.04479 77.611 3.82045 74.7377 4.21825C72.3528 4.54533 70.2644 5.95531 68.2719 7.31225L68.4114 9.78746C68.7922 10.5627 69.4554 11.1576 70.2608 11.4462C71.0663 11.7349 71.9509 11.6948 72.7278 11.3345C72.9421 11.6622 73.2433 11.9219 73.5969 12.0836C73.9504 12.2452 74.3418 12.3024 74.726 12.2483C75.1102 12.1942 75.4715 12.0312 75.7682 11.7781C76.065 11.5249 76.2851 11.1918 76.4032 10.8173C76.8829 11.5224 77.5585 12.0669 78.3441 12.3817C79.1298 12.6965 79.9901 12.7674 80.8156 12.5853C80.538 12.9559 80.3367 13.3793 80.2236 13.8303C80.1105 14.2813 80.0879 14.7508 80.1572 15.2108C80.3534 16.1169 81.1905 16.9125 82.1018 16.8197C81.9666 17.7965 81.8358 18.8131 82.1454 19.7501C82.4549 20.6872 83.34 21.5181 84.3254 21.3767C84.6415 21.3162 84.9399 21.1831 85.1976 20.9878C85.4553 20.7924 85.6655 20.5399 85.8121 20.2496C86.102 19.6673 86.2866 19.0371 86.3571 18.3888C86.6623 16.4926 86.7931 14.5787 86.9021 12.6649C86.9675 11.2814 87.0329 9.75209 86.2874 8.54985Z" fill="#263238"/>
<path d="M94.4057 21.2132C94.4662 20.7325 94.491 20.2479 94.4799 19.7634C94.4135 18.4761 93.9326 17.2464 93.1108 16.2628L93.0716 16.2186V16.1611C93.2715 15.6795 93.3587 15.1575 93.3262 14.636C93.2936 14.1145 93.1423 13.6078 92.8841 13.1555C92.5816 12.6544 92.1525 12.2443 91.6412 11.9676C91.13 11.691 90.555 11.5578 89.976 11.582C89.7315 11.5951 89.489 11.6336 89.2522 11.6969L89.0865 11.7455L89.104 11.582C89.1613 11.105 89.0922 10.6212 88.9039 10.1803C88.7156 9.73938 88.4148 9.35726 88.0325 9.07324C87.6502 8.78922 87.2002 8.61355 86.7288 8.5643C86.2573 8.51504 85.7814 8.59397 85.35 8.79298L85.1887 8.86371L85.2149 8.6869C85.2682 8.32652 85.2329 7.95836 85.1119 7.61519C84.991 7.27202 84.7882 6.9645 84.5216 6.72C84.3132 6.53349 84.07 6.39123 83.8064 6.30165C83.5428 6.21207 83.2641 6.17697 82.9869 6.19845C82.6253 6.22084 82.2742 6.32991 81.9623 6.51668C81.7487 6.64928 81.6484 6.74652 81.6397 6.73326C81.6309 6.72 81.6397 6.70232 81.7051 6.65812C81.7743 6.58741 81.8503 6.52375 81.9318 6.46806C82.243 6.25324 82.6032 6.12242 82.9782 6.08795C83.2724 6.05655 83.5699 6.0862 83.8525 6.17511C84.1351 6.26402 84.3969 6.41031 84.6219 6.60509C84.915 6.86371 85.1399 7.19234 85.2761 7.56124C85.4124 7.93014 85.4558 8.32767 85.4023 8.71784L85.2715 8.61618C85.736 8.39765 86.2496 8.30911 86.7592 8.35974C87.2688 8.41037 87.7557 8.59833 88.1694 8.9041C88.5832 9.20988 88.9086 9.62234 89.1121 10.0987C89.3155 10.575 89.3895 11.0978 89.3263 11.6129L89.1825 11.4848C89.4373 11.4146 89.6991 11.3731 89.9629 11.361C90.5891 11.3332 91.2111 11.477 91.7635 11.7772C92.3159 12.0775 92.7783 12.523 93.1021 13.0671C93.3744 13.5493 93.5319 14.0893 93.5622 14.644C93.5925 15.1988 93.4946 15.7531 93.2765 16.2628V16.1611C94.1134 17.1798 94.5852 18.4558 94.615 19.7811C94.6216 20.1441 94.5924 20.5069 94.5278 20.864C94.4962 20.9834 94.4553 21.1002 94.4057 21.2132Z" fill="#455A64"/>
<path d="M80.9362 17.9646L80.7833 18.3785L86.0179 20.3657L86.1708 19.9518L80.9362 17.9646Z" fill="#455A64"/>
<path d="M85.9038 19.697L85.2062 14.1809L85.6378 14.1234L86.2787 19.1976L87.2772 19.0561L86.4793 13.2262L86.9109 13.1687L87.7699 19.4318L85.9038 19.697Z" fill="#E0E0E0"/>
<path d="M85.18 14.6495C85.18 14.6495 84.186 6.36196 81.4871 4.14312L80.384 2.93203C81.4419 2.77958 82.5202 2.97312 83.4622 3.48453C85.071 4.34201 86.1436 8.01503 86.9502 13.2085L85.18 14.6495Z" fill="#455A64"/>
<path d="M87.5257 27.6796C90.4225 27.6796 92.7708 25.2989 92.7708 22.3623C92.7708 19.4257 90.4225 17.045 87.5257 17.045C84.6289 17.045 82.2806 19.4257 82.2806 22.3623C82.2806 25.2989 84.6289 27.6796 87.5257 27.6796Z" fill="#455A64"/>
<path d="M90.6954 22.3623C90.6693 22.3623 90.6954 22.075 90.5559 21.5888C90.3677 20.9013 89.9598 20.2966 89.3962 19.8694C88.9899 19.5697 88.5169 19.3763 88.0192 19.3064C87.5215 19.2365 87.0145 19.2922 86.5432 19.4687C86.0718 19.6451 85.6507 19.9368 85.3173 20.3178C84.9839 20.6989 84.7484 21.1574 84.6317 21.6529C84.5151 22.1483 84.5209 22.6653 84.6487 23.1579C84.7764 23.6505 85.0222 24.1036 85.3642 24.4768C85.7061 24.85 86.1336 25.1318 86.6088 25.2973C87.084 25.4628 87.5922 25.5068 88.0882 25.4254C88.5621 25.3388 89.0098 25.1421 89.3962 24.8508C89.9586 24.4243 90.3663 23.8214 90.5559 23.1358C90.6823 22.6452 90.6693 22.3579 90.6954 22.3623C90.7066 22.4296 90.7066 22.4983 90.6954 22.5656C90.6962 22.7652 90.6728 22.9641 90.6257 23.1579C90.4643 23.8818 90.0587 24.5258 89.479 24.9789C89.0804 25.297 88.6124 25.5137 88.1143 25.611C87.5404 25.7241 86.9469 25.6783 86.3965 25.4784C85.7847 25.2609 85.2526 24.8601 84.8705 24.3292C84.4542 23.7602 84.2295 23.0707 84.2295 22.3623C84.2295 21.6539 84.4542 20.9644 84.8705 20.3954C85.2523 19.8632 85.7844 19.461 86.3965 19.2418C86.9474 19.044 87.5402 18.9982 88.1143 19.1092C88.7222 19.2294 89.2828 19.5254 89.7284 19.9615C90.174 20.3976 90.4857 20.9551 90.6257 21.5667C90.6728 21.759 90.6962 21.9564 90.6954 22.1546C90.7067 22.2233 90.7067 22.2935 90.6954 22.3623Z" fill="#263238"/>
<path d="M52.3579 63.4816C52.3579 63.4816 50.6139 72.5381 50.6139 76.6355C50.6139 80.7328 53.9798 83.6058 57.3501 82.3815C60.7204 81.1571 64.9365 75.6277 67.0554 71.1768L63.5674 67.4861L60.4675 69.3336L61.4398 65.9877L52.3579 63.4816Z" fill="#FFBF9D"/>
<path d="M63.5587 67.4817C63.4251 67.5983 63.2788 67.6991 63.1227 67.7822L61.9237 68.5292C60.9035 69.148 59.4995 70.0055 57.882 70.8497C57.4721 71.0575 57.0754 71.2519 56.6656 71.4111C56.2557 71.5702 55.8633 71.6763 55.4883 71.7912C54.8236 71.9705 54.1868 72.2427 53.5961 72.6C53.2023 72.8458 52.8636 73.1726 52.602 73.5592C52.4233 73.8332 52.3622 74.0012 52.3448 74.0012C52.3273 74.0012 52.3448 73.9526 52.3709 73.8642C52.4113 73.7398 52.4639 73.6199 52.5279 73.5062C52.7722 73.0874 53.1059 72.7295 53.5046 72.4586C54.0977 72.0701 54.7441 71.7722 55.4229 71.5746C55.7979 71.4509 56.1947 71.3359 56.5871 71.1857C56.9928 71.0203 57.39 70.8344 57.7773 70.6287C59.3862 69.7933 60.8032 68.958 61.8452 68.3745C62.3597 68.0828 62.7826 67.8486 63.0791 67.6894C63.2311 67.6028 63.3919 67.5331 63.5587 67.4817Z" fill="#FF9A6C"/>
<path d="M74.8032 59.3179C74.8032 59.3179 75.6055 58.129 76.4077 58.0936C77.2099 58.0582 77.3364 59.3798 76.5647 60.445C76.0465 61.1488 75.4625 61.8001 74.8207 62.3898L74.8032 59.3179Z" fill="#FFBF9D"/>
<path d="M67.0642 71.1725L69.1483 68.8917C69.1483 68.8917 71.8384 67.1989 72.161 64.9137C72.4837 62.6286 73.033 58.9909 73.033 58.9909L65.7213 58.2351L64.5572 64.2331L64.3828 66.8055L63.5457 67.4862L67.0642 71.1725Z" fill="#FFBF9D"/>
<path d="M66.4843 52.962L67.0423 66.7834L74.5677 66.9337L76.3161 53.4571L66.4843 52.962Z" fill="#455A64"/>
<path d="M65.996 65.864C65.996 65.864 69.3881 65.7579 69.6017 63.6849C69.6017 63.6849 71.0405 63.791 71.0405 62.8672C71.0405 62.0451 70.1293 61.7534 70.1293 61.7534C70.1293 61.7534 71.0013 61.3467 70.8312 60.6263C70.574 59.5743 66.7416 58.7831 66.7416 58.7831L66.6543 57.572C66.6543 57.572 68.3984 57.4748 68.3242 56.5378C68.2632 55.7068 67.2517 55.7201 66.8593 55.6538C66.65 55.6272 64.4743 55.3576 64.2433 56.8118C64.2218 56.9609 64.2384 57.113 64.2912 57.2538L64.7272 58.5798C64.7272 58.5798 63.4192 59.203 64.0776 60.918L64.313 61.3335C64.313 61.3335 63.2797 63.0749 63.6547 64.6573C63.8862 65.5739 63.8544 66.5385 63.5631 67.4375" fill="#FFBF9D"/>
<path d="M63.5588 67.4817C63.5588 67.4817 63.598 67.3358 63.6547 67.0397C63.7304 66.6319 63.7611 66.2168 63.7462 65.8021C63.7323 65.505 63.6959 65.2095 63.6372 64.9181C63.5426 64.5683 63.4971 64.2067 63.5021 63.844C63.5482 62.9582 63.7975 62.0956 64.2302 61.3246V61.413C64.1561 61.2892 64.0776 61.1434 63.9948 61.0019C63.8166 60.5847 63.7621 60.124 63.8378 59.6759C63.8886 59.4332 63.9909 59.2047 64.1378 59.0062C64.2846 58.8077 64.4724 58.6441 64.688 58.5267L64.6357 58.6505L64.3566 57.8416L64.2171 57.4306C64.1559 57.2817 64.1205 57.1232 64.1125 56.9621C64.125 56.6296 64.2604 56.3141 64.4918 56.0781C64.7388 55.8552 65.0397 55.7027 65.3638 55.6361C66.0064 55.5145 66.6657 55.5145 67.3084 55.6361C67.6691 55.6556 68.0089 55.8137 68.2588 56.0781C68.3732 56.2341 68.4357 56.4229 68.4376 56.6173C68.4394 56.7167 68.4219 56.8155 68.386 56.9081C68.35 57.0006 68.2965 57.085 68.2283 57.1565C68.0208 57.3701 67.7602 57.5229 67.474 57.5985C67.2086 57.6792 66.9352 57.7296 66.6587 57.7488L66.7677 57.6251C66.7939 58.0317 66.8244 58.4383 66.8549 58.8361L66.7634 58.7345C67.8029 58.9472 68.8182 59.2671 69.7936 59.6892C70.0265 59.7947 70.2485 59.9235 70.4563 60.0737C70.6849 60.2183 70.855 60.4409 70.9359 60.7014C70.9624 60.8332 70.9589 60.9694 70.9257 61.0996C70.8924 61.2298 70.8303 61.3506 70.744 61.4528C70.5847 61.6392 70.3887 61.7898 70.1685 61.8948V61.7091C70.4795 61.8172 70.7503 62.0193 70.9446 62.2882C71.0388 62.4206 71.1005 62.5738 71.1248 62.7352C71.149 62.8966 71.1351 63.0615 71.0841 63.2164C71.018 63.3531 70.9213 63.4722 70.8017 63.5643C70.6821 63.6564 70.5429 63.7189 70.3952 63.7468C70.1373 63.8113 69.8712 63.8351 69.6061 63.8175L69.6889 63.7468C69.6382 64.1002 69.4968 64.434 69.2791 64.7147C69.0785 64.9508 68.8378 65.1484 68.5684 65.2982C68.1439 65.5314 67.6866 65.6968 67.2124 65.7888C66.9181 65.8541 66.6193 65.897 66.3186 65.917C66.2145 65.9315 66.1089 65.9315 66.0047 65.917L66.3143 65.8728C66.6077 65.8325 66.8987 65.7764 67.1863 65.7048C67.6443 65.5986 68.0849 65.4259 68.4943 65.1921C68.7462 65.0443 68.9705 64.8528 69.157 64.6264C69.3536 64.3699 69.4786 64.0646 69.5189 63.7424V63.6716H69.5886C69.8366 63.6835 70.0848 63.6582 70.3255 63.5965C70.4479 63.5739 70.5632 63.5221 70.6618 63.4452C70.7603 63.3683 70.8394 63.2686 70.8923 63.1545C70.9314 63.0283 70.9408 62.8946 70.9196 62.764C70.8984 62.6335 70.8472 62.5099 70.7702 62.4031C70.5965 62.1708 70.3581 61.9968 70.0857 61.9036L69.8677 61.8241L70.0726 61.718C70.4345 61.5368 70.8182 61.1655 70.7179 60.7367C70.6431 60.5294 70.5019 60.3535 70.3168 60.2373C70.1181 60.0998 69.908 59.98 69.6889 59.8793C68.7267 59.4688 67.7261 59.1578 66.7023 58.9511H66.6195V58.8671C66.5933 58.4693 66.5628 58.0626 66.5323 57.656V57.5411H66.6456C66.9039 57.5216 67.1595 57.4757 67.4086 57.4041C67.6525 57.3447 67.8766 57.2212 68.0583 57.046C68.1492 56.9374 68.1991 56.7996 68.1991 56.6571C68.1991 56.5146 68.1492 56.3768 68.0583 56.2681C67.8443 56.052 67.5578 55.9258 67.256 55.9145C66.6408 55.7973 66.0095 55.7973 65.3943 55.9145C65.1109 55.9735 64.8487 56.1095 64.6357 56.3079C64.4445 56.5047 64.3312 56.7658 64.3174 57.0416C64.3606 57.3224 64.4367 57.5969 64.5441 57.8593C64.64 58.1334 64.7316 58.403 64.8188 58.6682L64.8493 58.7522L64.7665 58.7964C64.5778 58.8987 64.4134 59.0415 64.2846 59.2147C64.1559 59.388 64.0659 59.5876 64.0209 59.7997C63.9507 60.2082 63.9976 60.6285 64.1561 61.0108C64.2346 61.1566 64.3174 61.2981 64.3872 61.4263L64.4133 61.4705L64.3872 61.5191C63.957 62.26 63.7032 63.0924 63.646 63.9501C63.6357 64.3029 63.6738 64.6555 63.7593 64.9976C63.8152 65.2965 63.8459 65.5996 63.8509 65.9037C63.8565 66.3267 63.8081 66.7486 63.707 67.159C63.6811 67.2654 63.6491 67.3702 63.6111 67.4728C63.5806 67.4507 63.5631 67.4861 63.5588 67.4817Z" fill="#FF9A6C"/>
<path d="M76.2943 52.3874L76.0065 51.0437H66.8985L66.5758 52.3343L65.6384 52.4272L65.6602 53.5277L77.005 53.6427L77.0834 52.3874H76.2943Z" fill="#263238"/>
<path d="M69.5799 63.6849C69.3219 63.7489 69.0553 63.7698 68.7907 63.7468L66.8985 63.707C66.5559 63.6824 66.2121 63.6824 65.8695 63.707C65.6003 63.7314 65.3397 63.8159 65.1065 63.9545C64.7272 64.2153 64.6313 64.538 64.592 64.5115C64.6103 64.3711 64.6588 64.2366 64.7342 64.1174C64.8095 63.9982 64.9099 63.8973 65.028 63.8219C65.2728 63.645 65.5578 63.534 65.8564 63.4993C66.208 63.4575 66.5626 63.4471 66.9159 63.4683C67.6571 63.4683 68.3286 63.5346 68.8125 63.5744C69.0716 63.5816 69.3291 63.6187 69.5799 63.6849Z" fill="#FF9A6C"/>
<path d="M64.3086 61.3777C64.2824 61.3777 64.4874 61.0374 65.0454 60.8341C65.3778 60.7524 65.7257 60.7631 66.0526 60.865C66.3927 60.9357 66.8112 60.9755 67.2254 61.0595C68.0626 61.2142 68.8038 61.3954 69.3444 61.5236C69.6441 61.5688 69.9371 61.6519 70.2164 61.7711C69.9145 61.7802 69.6127 61.7505 69.3182 61.6827C68.7689 61.5987 68.0102 61.4352 67.1862 61.2849C66.772 61.2009 66.384 61.1567 66.009 61.0683C65.7144 60.9681 65.4001 60.9424 65.0934 60.9932C64.8159 61.0849 64.5519 61.2143 64.3086 61.3777Z" fill="#FF9A6C"/>
<path d="M67.0642 58.898C66.6723 58.8859 66.2817 58.8445 65.8957 58.7743C65.5001 58.7752 65.1059 58.7247 64.7229 58.624C65.1085 58.4978 65.519 58.4704 65.9175 58.5445C66.3263 58.5419 66.7261 58.6652 67.0642 58.898Z" fill="#FF9A6C"/>
<path d="M66.9334 57.4528C66.9596 57.5102 66.5584 57.7268 66.0178 57.824C65.6929 57.9198 65.3465 57.9089 65.0281 57.7931C65.3343 57.6832 65.6543 57.6177 65.9786 57.5986C66.2884 57.5042 66.6099 57.4551 66.9334 57.4528Z" fill="#FF9A6C"/>
<path d="M67.7705 69.0995C67.7353 68.4903 67.5701 67.8962 67.2866 67.358C66.9341 66.863 66.4786 66.4526 65.9524 66.1557C65.9524 66.1292 66.1748 66.1557 66.4887 66.3104C66.8945 66.5233 67.2364 66.8427 67.4788 67.2354C67.7212 67.628 67.855 68.0795 67.8664 68.5425C67.8664 68.8961 67.7967 69.1039 67.7705 69.0995Z" fill="#FF9A6C"/>
<path d="M76.5428 52.3388C76.5428 52.4007 74.2756 52.4537 71.4809 52.4537C68.6861 52.4537 66.4146 52.4007 66.4146 52.3388C66.4146 52.2769 68.6817 52.2239 71.4809 52.2239C74.28 52.2239 76.5428 52.2725 76.5428 52.3388Z" fill="#455A64"/>
<path d="M151.814 112.071H159.893C160.43 112.072 160.944 112.289 161.324 112.674C161.703 113.06 161.916 113.582 161.916 114.126V114.285C161.916 114.83 161.702 115.353 161.322 115.738C160.942 116.124 160.426 116.34 159.889 116.34H151.814V112.075V112.071Z" fill="#263238"/>
<path d="M161.916 114.422V113.98C163.66 113.878 164.724 113.282 164.968 112.247C165.045 111.735 164.983 111.211 164.789 110.731C164.595 110.251 164.275 109.834 163.865 109.525C161.907 108.446 156.183 108.199 154.024 108.115C143.124 107.673 136.898 107.496 126.526 107.673C121.73 107.739 117.012 106.157 113.882 103.407C112.504 102.201 111.702 100.508 110.882 98.8725C110.01 97.1045 109.195 95.4116 107.726 94.2757C105.171 92.2955 101.569 92.6978 98.3777 93.3563L98.0202 93.4315C94.8025 94.0989 91.4802 94.7928 88.5459 93.3652C86.1653 92.2027 86.1653 90.364 86.1697 87.8225V87.5175C86.1697 85.8777 86.1174 84.3042 86.0607 82.7793C86.0214 81.5859 85.9822 80.4632 85.9648 79.3184C85.8601 70.9204 86.2438 61.9124 86.6144 53.2095C86.985 44.5065 87.3687 35.5295 87.264 27.1315H87.7C87.8047 35.5295 87.421 44.5374 87.0504 53.2404C86.6798 61.9434 86.2961 70.9204 86.4008 79.3184C86.4008 80.4588 86.4574 81.5815 86.4967 82.7704C86.5534 84.2998 86.6057 85.8644 86.6057 87.5264V87.8313C86.6057 90.3021 86.6057 91.9331 88.7377 92.9762C91.5281 94.3376 94.785 93.6613 97.933 93.0072L98.26 92.9099C101.539 92.2337 105.262 91.8226 107.957 93.9088C109.504 95.1111 110.385 96.9144 111.24 98.6647C112.016 100.26 112.822 101.909 114.13 103.058C117.182 105.741 121.821 107.293 126.487 107.217C136.872 107.045 143.107 107.217 154.011 107.659C156.191 107.752 161.994 107.995 164.039 109.127C164.53 109.485 164.912 109.974 165.143 110.54C165.374 111.107 165.445 111.727 165.347 112.331C165.177 113.242 164.423 114.285 161.916 114.422Z" fill="#455A64"/>
</svg>
